<?xml version="1.0" encoding="UTF-8" standalone="no"?>
<svg
   xmlns:dc="http://purl.org/dc/elements/1.1/"
   xmlns:cc="http://creativecommons.org/ns#"
   xmlns:rdf="http://www.w3.org/1999/02/22-rdf-syntax-ns#"
   xmlns:svg="http://www.w3.org/2000/svg"
   xmlns="http://www.w3.org/2000/svg"
   xmlns:sodipodi="http://sodipodi.sourceforge.net/DTD/sodipodi-0.dtd"
   xmlns:inkscape="http://www.inkscape.org/namespaces/inkscape"
   id="Layer_1"
   version="1.2"
   viewBox="0 0 512 512"
   xml:space="preserve"
   sodipodi:docname="iconfinder-icon-excel-csv.svg"
   inkscape:version="0.92.3 (2405546, 2018-03-11)"><metadata
     id="metadata19"><rdf:RDF><cc:Work
         rdf:about=""><dc:format>image/svg+xml</dc:format><dc:type
           rdf:resource="http://purl.org/dc/dcmitype/StillImage" /><dc:title></dc:title></cc:Work></rdf:RDF></metadata><defs
     id="defs17" /><sodipodi:namedview
     pagecolor="#ffffff"
     bordercolor="#666666"
     borderopacity="1"
     objecttolerance="10"
     gridtolerance="10"
     guidetolerance="10"
     inkscape:pageopacity="0"
     inkscape:pageshadow="2"
     inkscape:window-width="1148"
     inkscape:window-height="869"
     id="namedview15"
     showgrid="false"
     inkscape:zoom="1.84375"
     inkscape:cx="104.51759"
     inkscape:cy="115.89605"
     inkscape:window-x="2094"
     inkscape:window-y="140"
     inkscape:window-maximized="0"
     inkscape:current-layer="XMLID_1163_" /><g
     id="XMLID_1163_"><rect
       fill="#8ABE4F"
       height="19.1"
       id="XMLID_349_"
       width="227.1"
       x="120.3"
       y="158.6"
       style="fill:#207245;fill-opacity:1" /><rect
       fill="#8ABE4F"
       height="19.1"
       id="XMLID_348_"
       width="227.1"
       x="120.3"
       y="189.6"
       style="fill:#207245;fill-opacity:1" /><rect
       fill="#8ABE4F"
       height="19.1"
       id="XMLID_347_"
       width="227.1"
       x="120.3"
       y="220.7"
       style="fill:#207245;fill-opacity:1" /><rect
       fill="#8ABE4F"
       height="19.1"
       id="XMLID_346_"
       width="227.1"
       x="120.3"
       y="251.7"
       style="fill:#207245;fill-opacity:1" /><rect
       fill="#8ABE4F"
       height="19.1"
       id="XMLID_345_"
       width="176.5"
       x="120.3"
       y="282.7"
       style="fill:#207245;fill-opacity:1" /><path
       d="M456.1,75.1L397.6,7.3c-1.8-1.8-4.9-1.8-6.7,0l-58.5,67.8c-2.6,2.6-0.6,6.7,3.3,6.7h27.4   V135h62.1V81.8h27.4C456.7,81.8,458.7,77.7,456.1,75.1z"
       id="XMLID_344_"
       fill="#8ABE4F"
       style="fill:#207245;fill-opacity:1" /><rect
       fill="#8ABE4F"
       height="24.2"
       id="XMLID_343_"
       width="62.1"
       x="363.2"
       y="144.6"
       style="fill:#207245;fill-opacity:1" /><path
       d="M363.2,187.3c0,2.2,2,4,4.5,4h53.1c2.5,0,4.5-1.8,4.5-4v-8.9h-62.1V187.3z"
       fill="#8ABE4F"
       id="XMLID_342_"
       style="fill:#207245;fill-opacity:1" /><path
       d="M386.7,464.2c0,15.8-12.8,28.6-28.6,28.6H109.5c-15.8,0-28.6-12.8-28.6-28.6v-8.8H67.7V469   c0,20.5,16.6,37,37,37h258.1c20.5,0,37-16.6,37-37V200.4h-13.2V464.2z"
       fill="#8ABE4F"
       id="XMLID_341_"
       style="fill:#207245;fill-opacity:1" /><path
       d="M80.9,110.3c0-15.8,12.8-28.6,28.6-28.6h213.2c-1.4-4.4-0.3-9.3,3-12.7l0.4-0.4H104.8   c-20.5,0-37,16.6-37,37V333h13.2V110.3z"
       fill="#8ABE4F"
       id="XMLID_340_"
       style="fill:#207245;fill-opacity:1" /><path
       style="fill:#207245;fill-opacity:1"
       d="M 54.699219 342.19922 L 54.699219 446.30078 L 293.40039 446.30078 C 322.10039 446.30078 345.40039 423.00078 345.40039 394.30078 C 345.40039 365.60078 322.10078 342.19922 293.30078 342.19922 L 54.699219 342.19922 z M 112.16016 365.86719 C 115.4171 365.86719 118.4796 366.30469 121.34766 367.17969 C 124.24002 368.03038 126.95074 369.31923 129.47852 371.04492 L 129.47852 378.81055 C 126.99935 376.50152 124.35069 374.77517 121.53125 373.63281 C 118.73611 372.49045 115.75738 371.91992 112.59766 371.91992 C 106.37543 371.91992 101.6122 373.82661 98.306641 377.64258 C 95.001085 381.43424 93.347656 386.9286 93.347656 394.12305 C 93.347656 401.29319 95.001085 406.78559 98.306641 410.60156 C 101.6122 414.39323 106.37543 416.28906 112.59766 416.28906 C 115.75738 416.28906 118.73611 415.71853 121.53125 414.57617 C 124.35069 413.43381 126.99935 411.70747 129.47852 409.39844 L 129.47852 417.0918 C 126.90213 418.8418 124.16775 420.1543 121.27539 421.0293 C 118.40734 421.9043 115.36849 422.3418 112.16016 422.3418 C 103.92057 422.3418 97.430989 419.82617 92.691406 414.79492 C 87.951823 409.73937 85.582031 402.84874 85.582031 394.12305 C 85.582031 385.37305 87.951823 378.48242 92.691406 373.45117 C 97.430989 368.39562 103.92057 365.86719 112.16016 365.86719 z M 157.625 365.86719 C 160.17708 365.86719 162.77648 366.09874 165.42578 366.56055 C 168.07509 367.02235 170.78581 367.71506 173.55664 368.63867 L 173.55664 375.82031 C 170.7615 374.48351 168.1237 373.48633 165.64453 372.83008 C 163.16536 372.17383 160.77192 371.8457 158.46289 371.8457 C 154.45247 371.8457 151.35352 372.62413 149.16602 374.17969 C 147.00282 375.73524 145.92188 377.9464 145.92188 380.81445 C 145.92188 383.2207 146.63824 385.04362 148.07227 386.2832 C 149.5306 387.49848 152.27778 388.48286 156.3125 389.23633 L 160.75977 390.14844 C 166.25282 391.19358 170.2997 393.04015 172.90039 395.68945 C 175.52539 398.31445 176.83789 401.84006 176.83789 406.26367 C 176.83789 411.53798 175.06424 415.53559 171.51562 418.25781 C 167.99132 420.98003 162.81424 422.3418 155.98438 422.3418 C 153.40799 422.3418 150.66081 422.05013 147.74414 421.4668 C 144.85178 420.88346 141.84939 420.01931 138.73828 418.87695 L 138.73828 411.29492 C 141.72786 412.97201 144.65734 414.23524 147.52539 415.08594 C 150.39345 415.93663 153.21354 416.36133 155.98438 416.36133 C 160.18924 416.36133 163.43403 415.53559 165.71875 413.88281 C 168.00347 412.23003 169.14453 409.87305 169.14453 406.81055 C 169.14453 404.13694 168.31879 402.04601 166.66602 400.53906 C 165.03754 399.03212 162.35243 397.90191 158.60938 397.14844 L 154.125 396.27344 C 148.63194 395.17969 144.65799 393.46615 142.20312 391.13281 C 139.74826 388.79948 138.51953 385.55469 138.51953 381.39844 C 138.51953 376.58594 140.20942 372.79427 143.58789 370.02344 C 146.99067 367.2526 151.67014 365.86719 157.625 365.86719 z M 181.57812 366.85156 L 189.26953 366.85156 L 206.51562 412.67969 L 223.79688 366.85156 L 231.45312 366.85156 L 210.70703 421.2832 L 202.35938 421.2832 L 181.57812 366.85156 z "
       id="XMLID_1164_" /></g></svg>