<?xml version="1.0" encoding="UTF-8" standalone="no"?>
<svg
   xmlns:dc="http://purl.org/dc/elements/1.1/"
   xmlns:cc="http://creativecommons.org/ns#"
   xmlns:rdf="http://www.w3.org/1999/02/22-rdf-syntax-ns#"
   xmlns:svg="http://www.w3.org/2000/svg"
   xmlns="http://www.w3.org/2000/svg"
   xmlns:sodipodi="http://sodipodi.sourceforge.net/DTD/sodipodi-0.dtd"
   xmlns:inkscape="http://www.inkscape.org/namespaces/inkscape"
   width="512"
   height="512"
   version="1.1"
   id="svg24"
   sodipodi:docname="iconfinder-icon-word-doc.svg"
   inkscape:version="0.92.3 (2405546, 2018-03-11)">
  <metadata
     id="metadata30">
    <rdf:RDF>
      <cc:Work
         rdf:about="">
        <dc:format>image/svg+xml</dc:format>
        <dc:type
           rdf:resource="http://purl.org/dc/dcmitype/StillImage" />
      </cc:Work>
    </rdf:RDF>
  </metadata>
  <defs
     id="defs28" />
  <sodipodi:namedview
     pagecolor="#ffffff"
     bordercolor="#666666"
     borderopacity="1"
     objecttolerance="10"
     gridtolerance="10"
     guidetolerance="10"
     inkscape:pageopacity="0"
     inkscape:pageshadow="2"
     inkscape:window-width="791"
     inkscape:window-height="646"
     id="namedview26"
     showgrid="false"
     inkscape:zoom="0.921875"
     inkscape:cx="138.70638"
     inkscape:cy="156.94087"
     inkscape:window-x="2331"
     inkscape:window-y="133"
     inkscape:window-maximized="0"
     inkscape:current-layer="g22" />
  <g
     id="g5">
    <title
       id="title2">background</title>
    <rect
       fill="none"
       id="canvas_background"
       height="402"
       width="582"
       y="-1"
       x="-1" />
  </g>
  <g
     id="g22">
    <title
       id="title7">Layer 1</title>
    <rect
       y="158.6"
       x="120.3"
       width="227.1"
       id="XMLID_260_"
       height="19.1"
       fill="#1d409d"
       style="fill:#2a5699;fill-opacity:1" />
    <rect
       y="189.6"
       x="120.3"
       width="227.1"
       id="XMLID_259_"
       height="19.1"
       fill="#1d409d"
       style="fill:#2a5699;fill-opacity:1" />
    <rect
       y="220.7"
       x="120.3"
       width="227.1"
       id="XMLID_258_"
       height="19.1"
       fill="#1d409d"
       style="fill:#2a5699;fill-opacity:1" />
    <rect
       y="251.7"
       x="120.3"
       width="227.1"
       id="XMLID_257_"
       height="19.1"
       fill="#1d409d"
       style="fill:#2a5699;fill-opacity:1" />
    <rect
       y="282.7"
       x="120.3"
       width="176.5"
       id="XMLID_256_"
       height="19.1"
       fill="#1d409d"
       style="fill:#2a5699;fill-opacity:1" />
    <path
       id="XMLID_255_"
       fill="#1d409d"
       d="m456.1,75.1l-58.5,-67.8c-1.8,-1.8 -4.9,-1.8 -6.7,0l-58.5,67.8c-2.6,2.6 -0.6,6.7 3.3,6.7l27.4,0l0,53.2l62.1,0l0,-53.2l27.4,0c4.1,0 6.1,-4.1 3.5,-6.7z"
       style="fill:#2a5699;fill-opacity:1" />
    <rect
       y="144.6"
       x="363.2"
       width="62.1"
       id="XMLID_254_"
       height="24.2"
       fill="#1d409d"
       style="fill:#2a5699;fill-opacity:1" />
    <path
       id="XMLID_253_"
       fill="#1d409d"
       d="m363.2,187.3c0,2.2 2,4 4.5,4l53.1,0c2.5,0 4.5,-1.8 4.5,-4l0,-8.9l-62.1,0l0,8.9z" />
    <path
       id="XMLID_252_"
       fill="#1d409d"
       d="m387.497007,464.2c0,15.8 -12.8,28.6 -28.6,28.6l-248.6,0c-15.8,0 -28.6,-12.8 -28.6,-28.6l0,-8.8l-13.2,0l0,13.6c0,20.5 16.6,37 37,37l258.1,0c20.5,0 37,-16.6 37,-37l0,-268.6l-13.2,0l0,263.8l0.1,0z"
       style="fill:#2a5699;fill-opacity:1" />
    <path
       id="XMLID_251_"
       fill="#1d409d"
       d="m80.9,110.3c0,-15.8 12.8,-28.6 28.6,-28.6l213.2,0c-1.4,-4.4 -0.3,-9.3 3,-12.7l0.4,-0.4l-221.3,0c-20.5,0 -37,16.6 -37,37l0,227.4l13.2,0l0,-222.7l-0.1,0z"
       style="fill:#2a5699;fill-opacity:1" />
    <path
       inkscape:connector-curvature="0"
       style="fill:#2a5699;fill-opacity:1"
       d="M 59.666364,347.13566 V 451.23722 H 298.36753 c 28.7,0 52,-23.3 52,-52 0,-28.7 -23.29961,-52.10156 -52.09961,-52.10156 z m 109.378896,23.66211 c 7.63195,0 13.7333,2.56489 18.30274,7.69336 4.56944,5.10416 6.85351,11.95833 6.85352,20.5625 0,8.57986 -2.28408,15.43403 -6.85352,20.5625 -4.56944,5.10416 -10.67079,7.65625 -18.30274,7.65625 -7.65624,0 -13.78124,-2.55209 -18.37499,-7.65625 -4.56944,-5.10417 -6.85351,-11.95834 -6.85351,-20.5625 0,-8.60417 2.28407,-15.45834 6.85351,-20.5625 4.59375,-5.12847 10.71875,-7.69336 18.37499,-7.69336 z m 60.1211,0 c 3.25694,0 6.31944,0.4375 9.1875,1.3125 2.89236,0.85069 5.60113,2.13954 8.1289,3.86523 v 7.76563 c -2.47916,-2.30903 -5.12782,-4.03538 -7.94726,-5.17774 -2.79514,-1.14236 -5.77192,-1.71289 -8.93164,-1.71289 -6.22222,0 -10.98741,1.90669 -14.29297,5.72266 -3.30556,3.79167 -4.95703,9.28602 -4.95703,16.48047 0,7.17014 1.65147,12.66254 4.95703,16.47851 3.30556,3.79167 8.07075,5.6875 14.29297,5.6875 3.15972,0 6.1365,-0.57053 8.93164,-1.71289 2.81944,-1.14236 5.4681,-2.8687 7.94726,-5.17773 v 7.69336 c -2.57638,1.75 -5.31076,3.0625 -8.20312,3.9375 -2.86806,0.875 -5.90495,1.3125 -9.11328,1.3125 -8.23958,0 -14.72917,-2.51563 -19.46875,-7.54688 -4.73958,-5.05555 -7.10938,-11.94618 -7.10938,-20.67187 0,-8.75 2.3698,-15.64063 7.10938,-20.67188 4.73958,-5.05555 11.22917,-7.58398 19.46875,-7.58398 z M 89.494489,371.78214 H 104.6234 c 10.54861,0 18.29058,2.20031 23.22461,6.59961 4.93403,4.375 7.40039,11.22917 7.40039,20.5625 0,9.38195 -2.47917,16.27257 -7.4375,20.67188 -4.95833,4.3993 -12.6875,6.59765 -23.1875,6.59765 H 89.494489 Z m 79.550771,4.99414 c -5.34722,0 -9.60003,1.99436 -12.75975,5.98047 -3.13542,3.98611 -4.70313,9.41841 -4.70313,16.29688 0,6.85416 1.56771,12.27365 4.70313,16.25976 3.15972,3.98611 7.41253,5.97852 12.75975,5.97852 5.34723,0 9.57639,-1.99241 12.6875,-5.97852 3.13542,-3.98611 4.70313,-9.4056 4.70313,-16.25976 0,-6.87847 -1.56771,-12.31077 -4.70313,-16.29688 -3.11111,-3.98611 -7.34027,-5.98047 -12.6875,-5.98047 z m -72.18749,1.0586 V 420.163 h 8.89649 c 7.51042,0 13.00282,-1.70269 16.47851,-5.10547 3.5,-3.40277 5.25,-8.773 5.25,-16.11328 0,-7.29166 -1.75,-12.62738 -5.25,-16.00586 -3.47569,-3.40277 -8.96809,-5.10351 -16.47851,-5.10351 z"
       id="XMLID_1062_" />
  </g>
</svg>
