<?xml version="1.0" encoding="UTF-8" standalone="no"?>
<svg
   xmlns:dc="http://purl.org/dc/elements/1.1/"
   xmlns:cc="http://creativecommons.org/ns#"
   xmlns:rdf="http://www.w3.org/1999/02/22-rdf-syntax-ns#"
   xmlns:svg="http://www.w3.org/2000/svg"
   xmlns="http://www.w3.org/2000/svg"
   xmlns:sodipodi="http://sodipodi.sourceforge.net/DTD/sodipodi-0.dtd"
   xmlns:inkscape="http://www.inkscape.org/namespaces/inkscape"
   width="512"
   height="512"
   version="1.1"
   id="svg4665"
   sodipodi:docname="iconfinder-icon-word-docx.svg"
   inkscape:version="0.92.3 (2405546, 2018-03-11)">
  <metadata
     id="metadata4671">
    <rdf:RDF>
      <cc:Work
         rdf:about="">
        <dc:format>image/svg+xml</dc:format>
        <dc:type
           rdf:resource="http://purl.org/dc/dcmitype/StillImage" />
      </cc:Work>
    </rdf:RDF>
  </metadata>
  <defs
     id="defs4669" />
  <sodipodi:namedview
     pagecolor="#ffffff"
     bordercolor="#666666"
     borderopacity="1"
     objecttolerance="10"
     gridtolerance="10"
     guidetolerance="10"
     inkscape:pageopacity="0"
     inkscape:pageshadow="2"
     inkscape:window-width="1920"
     inkscape:window-height="1008"
     id="namedview4667"
     showgrid="false"
     inkscape:zoom="1.84375"
     inkscape:cx="174.03354"
     inkscape:cy="99.271338"
     inkscape:window-x="1366"
     inkscape:window-y="40"
     inkscape:window-maximized="1"
     inkscape:current-layer="g4663" />
  <g
     id="g4646">
    <title
       id="title4643">background</title>
    <rect
       fill="none"
       id="canvas_background"
       height="402"
       width="582"
       y="-1"
       x="-1" />
  </g>
  <g
     id="g4663">
    <title
       id="title4648">Layer 1</title>
    <path
       style="fill:#2a5699;fill-opacity:1"
       d="M 54.699219 342.19922 L 54.699219 446.30078 L 293.40039 446.30078 C 322.10039 446.30078 345.40039 423.00078 345.40039 394.30078 C 345.40039 365.60078 322.10078 342.19922 293.30078 342.19922 L 54.699219 342.19922 z M 163.53711 366.03516 C 171.16905 366.03516 177.2704 368.59809 181.83984 373.72656 C 186.40929 378.83073 188.69336 385.6849 188.69336 394.28906 C 188.69336 402.86892 186.40929 409.72309 181.83984 414.85156 C 177.2704 419.95573 171.16905 422.50781 163.53711 422.50781 C 155.88086 422.50781 149.75586 419.95573 145.16211 414.85156 C 140.59267 409.7474 138.30859 402.89323 138.30859 394.28906 C 138.30859 385.6849 140.59267 378.83073 145.16211 373.72656 C 149.75586 368.59809 155.88086 366.03516 163.53711 366.03516 z M 223.6582 366.03516 C 226.91515 366.03516 229.97765 366.47266 232.8457 367.34766 C 235.73806 368.19835 238.44683 369.48524 240.97461 371.21094 L 240.97461 378.97656 C 238.49544 376.66753 235.84679 374.94314 233.02734 373.80078 C 230.2322 372.65842 227.25543 372.08594 224.0957 372.08594 C 217.87348 372.08594 213.10829 373.99457 209.80273 377.81055 C 206.49718 381.60221 204.8457 387.09462 204.8457 394.28906 C 204.8457 401.4592 206.49718 406.95356 209.80273 410.76953 C 213.10829 414.5612 217.87348 416.45703 224.0957 416.45703 C 227.25543 416.45703 230.2322 415.88455 233.02734 414.74219 C 235.84679 413.59983 238.49544 411.87543 240.97461 409.56641 L 240.97461 417.25781 C 238.39822 419.00781 235.66385 420.32031 232.77148 421.19531 C 229.90343 422.07031 226.86654 422.50781 223.6582 422.50781 C 215.41862 422.50781 208.92904 419.99219 204.18945 414.96094 C 199.44987 409.90538 197.08008 403.01476 197.08008 394.28906 C 197.08008 385.53906 199.44987 378.64844 204.18945 373.61719 C 208.92904 368.56163 215.41862 366.03516 223.6582 366.03516 z M 83.986328 367.01953 L 99.115234 367.01953 C 109.66385 367.01953 117.40582 369.21788 122.33984 373.61719 C 127.27387 377.99219 129.74023 384.84635 129.74023 394.17969 C 129.74023 403.56163 127.26107 410.45226 122.30273 414.85156 C 117.3444 419.25087 109.61523 421.45117 99.115234 421.45117 L 83.986328 421.45117 L 83.986328 367.01953 z M 249.79883 367.01953 L 257.70898 367.01953 L 271.23633 387.25391 L 284.83398 367.01953 L 292.74609 367.01953 L 275.24609 393.16016 L 293.91211 421.45117 L 286.00195 421.45117 L 270.68945 398.30078 L 255.26758 421.45117 L 247.31836 421.45117 L 266.75195 392.39453 L 249.79883 367.01953 z M 163.53711 372.01367 C 158.18989 372.01367 153.93707 374.00608 150.77734 377.99219 C 147.64193 381.9783 146.07422 387.41059 146.07422 394.28906 C 146.07422 401.14323 147.64193 406.56467 150.77734 410.55078 C 153.93707 414.53689 158.18989 416.5293 163.53711 416.5293 C 168.88433 416.5293 173.1135 414.53689 176.22461 410.55078 C 179.36003 406.56467 180.92773 401.14323 180.92773 394.28906 C 180.92773 387.41059 179.36003 381.9783 176.22461 377.99219 C 173.1135 374.00608 168.88433 372.01367 163.53711 372.01367 z M 91.349609 373.07031 L 91.349609 415.39844 L 100.24609 415.39844 C 107.75651 415.39844 113.24892 413.6977 116.72461 410.29492 C 120.22461 406.89214 121.97461 401.51997 121.97461 394.17969 C 121.97461 386.88802 120.22461 381.55425 116.72461 378.17578 C 113.24892 374.773 107.75651 373.07031 100.24609 373.07031 L 91.349609 373.07031 z "
       id="XMLID_1199_" />
    <rect
       fill="#1d409d"
       y="158.6"
       x="120.3"
       width="227.1"
       id="XMLID_382_"
       height="19.1"
       style="fill:#2a5699;fill-opacity:1" />
    <rect
       fill="#1d409d"
       y="189.6"
       x="120.3"
       width="227.1"
       id="XMLID_381_"
       height="19.1"
       style="fill:#2a5699;fill-opacity:1" />
    <rect
       fill="#1d409d"
       y="220.7"
       x="120.3"
       width="227.1"
       id="XMLID_380_"
       height="19.1"
       style="fill:#2a5699;fill-opacity:1" />
    <rect
       fill="#1d409d"
       y="251.7"
       x="120.3"
       width="227.1"
       id="XMLID_379_"
       height="19.1"
       style="fill:#2a5699;fill-opacity:1" />
    <rect
       fill="#1d409d"
       y="282.7"
       x="120.3"
       width="176.5"
       id="XMLID_378_"
       height="19.1"
       style="fill:#2a5699;fill-opacity:1" />
    <path
       fill="#1d409d"
       id="XMLID_377_"
       d="m456.1,75.1l-58.5,-67.8c-1.8,-1.8 -4.9,-1.8 -6.7,0l-58.5,67.8c-2.6,2.6 -0.6,6.7 3.3,6.7l27.4,0l0,53.2l62.1,0l0,-53.2l27.4,0c4.1,0 6.1,-4.1 3.5,-6.7z"
       style="fill:#2a5699;fill-opacity:1" />
    <rect
       fill="#1d409d"
       y="144.6"
       x="363.2"
       width="62.1"
       id="XMLID_376_"
       height="24.2"
       style="fill:#2a5699;fill-opacity:1" />
    <path
       fill="#1d409d"
       id="XMLID_375_"
       d="m363.2,187.3c0,2.2 2,4 4.5,4l53.1,0c2.5,0 4.5,-1.8 4.5,-4l0,-8.9l-62.1,0l0,8.9z"
       style="fill:#2a5699;fill-opacity:1" />
    <path
       fill="#1d409d"
       id="XMLID_374_"
       d="m386.7,464.2c0,15.8 -12.8,28.6 -28.6,28.6l-248.6,0c-15.8,0 -28.6,-12.8 -28.6,-28.6l0,-8.8l-13.2,0l0,13.6c0,20.5 16.6,37 37,37l258.1,0c20.5,0 37,-16.6 37,-37l0,-268.6l-13.2,0l0,263.8l0.1,0z"
       style="fill:#2a5699;fill-opacity:1" />
    <path
       fill="#1d409d"
       id="XMLID_373_"
       d="m80.9,110.3c0,-15.8 12.8,-28.6 28.6,-28.6l213.2,0c-1.4,-4.4 -0.3,-9.3 3,-12.7l0.4,-0.4l-221.3,0c-20.5,0 -37,16.6 -37,37l0,227.4l13.2,0l0,-222.7l-0.1,0z"
       style="fill:#2a5699;fill-opacity:1" />
  </g>
</svg>
