<?xml version="1.0" encoding="UTF-8" standalone="no"?>
<svg
   xmlns:dc="http://purl.org/dc/elements/1.1/"
   xmlns:cc="http://creativecommons.org/ns#"
   xmlns:rdf="http://www.w3.org/1999/02/22-rdf-syntax-ns#"
   xmlns:svg="http://www.w3.org/2000/svg"
   xmlns="http://www.w3.org/2000/svg"
   xmlns:sodipodi="http://sodipodi.sourceforge.net/DTD/sodipodi-0.dtd"
   xmlns:inkscape="http://www.inkscape.org/namespaces/inkscape"
   width="512"
   height="512"
   version="1.1"
   id="svg24"
   sodipodi:docname="iconfinder-icon-doc-epub.svg"
   inkscape:version="0.92.3 (2405546, 2018-03-11)">
  <metadata
     id="metadata30">
    <rdf:RDF>
      <cc:Work
         rdf:about="">
        <dc:format>image/svg+xml</dc:format>
        <dc:type
           rdf:resource="http://purl.org/dc/dcmitype/StillImage" />
        <dc:title />
      </cc:Work>
    </rdf:RDF>
  </metadata>
  <defs
     id="defs28" />
  <sodipodi:namedview
     pagecolor="#ffffff"
     bordercolor="#666666"
     borderopacity="1"
     objecttolerance="10"
     gridtolerance="10"
     guidetolerance="10"
     inkscape:pageopacity="0"
     inkscape:pageshadow="2"
     inkscape:window-width="1195"
     inkscape:window-height="944"
     id="namedview26"
     showgrid="false"
     inkscape:zoom="1.6000001"
     inkscape:cx="7.8054798"
     inkscape:cy="123.40474"
     inkscape:window-x="1366"
     inkscape:window-y="92"
     inkscape:window-maximized="0"
     inkscape:current-layer="g22"
     inkscape:snap-text-baseline="true" />
  <g
     id="g5">
    <title
       id="title2">background</title>
    <rect
       fill="none"
       id="canvas_background"
       height="402"
       width="582"
       y="-1"
       x="-1" />
  </g>
  <g
     id="g22">
    <title
       id="title7">Layer 1</title>
    <path
       id="XMLID_255_"
       d="m456.1,75.1l-58.5,-67.8c-1.8,-1.8 -4.9,-1.8 -6.7,0l-58.5,67.8c-2.6,2.6 -0.6,6.7 3.3,6.7l27.4,0l0,53.2l62.1,0l0,-53.2l27.4,0c4.1,0 6.1,-4.1 3.5,-6.7z"
       style="fill:#85b916;fill-opacity:1"
       fill="#1d409d" />
    <rect
       y="144.6"
       x="363.2"
       width="62.1"
       id="XMLID_254_"
       height="24.2"
       style="fill:#85b916;fill-opacity:1"
       fill="#1d409d" />
    <path
       id="XMLID_253_"
       d="m363.2,187.3c0,2.2 2,4 4.5,4l53.1,0c2.5,0 4.5,-1.8 4.5,-4l0,-8.9l-62.1,0l0,8.9z"
       fill="#1d409d"
       style="fill:#85b916;fill-opacity:1" />
    <path
       id="XMLID_252_"
       d="m387.497007,464.2c0,15.8 -12.8,28.6 -28.6,28.6l-248.6,0c-15.8,0 -28.6,-12.8 -28.6,-28.6l0,-8.8l-13.2,0l0,13.6c0,20.5 16.6,37 37,37l258.1,0c20.5,0 37,-16.6 37,-37l0,-268.6l-13.2,0l0,263.8l0.1,0z"
       style="fill:#85b916;fill-opacity:1"
       fill="#1d409d" />
    <path
       id="XMLID_251_"
       d="m80.9,110.3c0,-15.8 12.8,-28.6 28.6,-28.6l213.2,0c-1.4,-4.4 -0.3,-9.3 3,-12.7l0.4,-0.4l-221.3,0c-20.5,0 -37,16.6 -37,37l0,227.4l13.2,0l0,-222.7l-0.1,0z"
       style="fill:#85b916;fill-opacity:1"
       fill="#1d409d" />
    <path
       style="fill:#85b916;fill-opacity:1"
       d="M 59.123047 344.42383 L 59.123047 448.52539 L 297.82422 448.52539 C 326.52422 448.52539 349.82422 425.22539 349.82422 396.52539 C 349.82422 367.82539 326.52461 344.42383 297.72461 344.42383 L 59.123047 344.42383 z M 100.57812 367.69336 L 134.99414 367.69336 L 134.99414 373.89062 L 107.94336 373.89062 L 107.94336 390.00586 L 133.86523 390.00586 L 133.86523 396.20312 L 107.94336 396.20312 L 107.94336 415.92773 L 135.65039 415.92773 L 135.65039 422.125 L 100.57812 422.125 L 100.57812 367.69336 z M 147.82812 367.69336 L 164.45312 367.69336 C 170.55382 367.69336 175.16037 369.07878 178.27148 371.84961 C 181.4069 374.59614 182.97461 378.63021 182.97461 383.95312 C 182.97461 389.32465 181.4069 393.38433 178.27148 396.13086 C 175.16037 398.87739 170.55382 400.25 164.45312 400.25 L 155.19336 400.25 L 155.19336 422.125 L 147.82812 422.125 L 147.82812 367.69336 z M 192.05273 367.69336 L 199.45312 367.69336 L 199.45312 400.75977 C 199.45312 406.5931 200.51042 410.79861 202.625 413.375 C 204.73958 415.92708 208.16667 417.20312 212.90625 417.20312 C 217.62153 417.20312 221.03581 415.92708 223.15039 413.375 C 225.26497 410.79861 226.32227 406.5931 226.32227 400.75977 L 226.32227 367.69336 L 233.72461 367.69336 L 233.72461 401.67188 C 233.72461 408.7691 231.96181 414.12847 228.4375 417.75 C 224.9375 421.37153 219.76042 423.18164 212.90625 423.18164 C 206.02778 423.18164 200.82704 421.37153 197.30273 417.75 C 193.80273 414.12847 192.05273 408.7691 192.05273 401.67188 L 192.05273 367.69336 z M 247.57812 367.69336 L 266.39062 367.69336 C 272.00521 367.69336 276.33095 368.86003 279.36914 371.19336 C 282.40733 373.52669 283.92773 376.8444 283.92773 381.14648 C 283.92773 384.47635 283.14931 387.125 281.59375 389.09375 C 280.03819 391.0625 277.75412 392.28928 274.74023 392.77539 C 278.36176 393.55317 281.16905 395.18294 283.16211 397.66211 C 285.17947 400.11697 286.1875 403.19032 286.1875 406.88477 C 286.1875 411.74588 284.53407 415.50109 281.22852 418.15039 C 277.92296 420.7997 273.21983 422.125 267.11914 422.125 L 247.57812 422.125 L 247.57812 367.69336 z M 155.19336 373.74414 L 155.19336 394.19727 L 164.45312 394.19727 C 167.88021 394.19727 170.52886 393.31141 172.40039 391.53711 C 174.27192 389.7628 175.20898 387.23437 175.20898 383.95312 C 175.20898 380.69618 174.27192 378.18056 172.40039 376.40625 C 170.52886 374.63194 167.88021 373.74414 164.45312 373.74414 L 155.19336 373.74414 z M 254.94336 373.74414 L 254.94336 390.15039 L 265.84375 390.15039 C 269.44097 390.15039 272.11523 389.48329 273.86523 388.14648 C 275.63954 386.78537 276.52539 384.7181 276.52539 381.94727 C 276.52539 379.20074 275.63954 377.14822 273.86523 375.78711 C 272.11523 374.426 269.44097 373.74414 265.84375 373.74414 L 254.94336 373.74414 z M 254.94336 396.13086 L 254.94336 416.07227 L 266.75586 416.07227 C 270.71766 416.07227 273.64518 415.25933 275.54102 413.63086 C 277.46115 411.97808 278.42188 409.46246 278.42188 406.08398 C 278.42188 402.68121 277.46115 400.17643 275.54102 398.57227 C 273.64518 396.94379 270.71766 396.13086 266.75586 396.13086 L 254.94336 396.13086 z "
       id="XMLID_1062_" />
    <flowRoot
       xml:space="preserve"
       id="flowRoot887"
       style="font-style:normal;font-weight:normal;font-size:40px;line-height:1.25;font-family:sans-serif;letter-spacing:0px;word-spacing:0px;fill:#ff0000;fill-opacity:0;stroke:none;"><flowRegion
         id="flowRegion889"
         style="fill:#ff0000;fill-opacity:0;"><rect
           id="rect891"
           width="108.125"
           height="51.25"
           x="80.625"
           y="364.5"
           style="fill:#ff0000;fill-opacity:0;" /></flowRegion><flowPara
         id="flowPara893"
         style="fill:#ff0000;-inkscape-font-specification:'sans-serif, Normal';font-family:sans-serif;font-weight:normal;font-style:normal;font-stretch:normal;font-variant:normal;font-size:53.33333333px;text-anchor:start;text-align:start;writing-mode:lr;font-variant-ligatures:normal;font-variant-caps:normal;font-variant-numeric:normal;font-feature-settings:normal;fill-opacity:0;">ODS</flowPara></flowRoot>    <path
       inkscape:connector-curvature="0"
       d="m 266.36419,277.81982 c -2.89255,0 -6.07716,-0.79544 -9.46705,-2.36427 -3.22802,-1.49421 -3.64384,-2.06408 -5.56165,-7.62764 l -0.0369,-0.10629 -0.051,-0.10063 c -2.46559,-4.88458 -6.45838,-8.94829 -12.20653,-12.42347 -3.96347,-2.39706 -3.58871,-7.14427 -2.04918,-9.80591 1.52897,-1.98663 4.09484,-2.59041 6.8132,-3.07887 1.03222,-0.18544 2.06913,-0.27985 3.08375,-0.27985 4.23501,0 8.37971,1.60615 12.67102,4.90946 7.96976,6.13287 13.71732,14.41631 17.57112,25.32408 0.19236,0.545 0.23518,0.9707 -0.8768,1.8843 -0.87328,0.71742 -2.13012,1.51626 -3.36115,2.13814 -2.01282,1.01536 -4.20979,1.53095 -6.52876,1.53095 0,0 0,0 0,0 z m 29.53191,18.67675 c 4.50538,-3.43786 7.39148,-8.03356 9.83888,-12.48848 5.54699,-10.09367 6.53463,-20.28798 2.93595,-30.29912 -2.39227,-6.65468 -6.55515,-12.87744 -13.10033,-19.58526 -8.65536,-8.86971 -18.65788,-16.16153 -28.33137,-23.21365 -3.35118,-2.44229 -6.70881,-4.87667 -10.06703,-7.31161 -10.21952,-7.40772 -20.78623,-15.06759 -30.97935,-22.86427 -7.34222,-5.61671 -13.72494,-12.35393 -18.97165,-20.0251 -3.09136,-4.5205 -3.77579,-9.00426 -2.09082,-13.70737 0.97474,-2.72044 1.6492,-4.99822 2.12249,-7.17027 1.07914,-4.95186 -0.66331,-9.88111 -4.26785,-12.39068 -8.63718,7.53719 -14.27507,14.1342 -18.27901,21.38702 -7.32755,13.27261 -5.57924,25.24606 5.19627,35.58736 4.9558,4.75625 10.01542,8.61926 15.03867,11.48274 7.75627,4.42043 15.89611,8.54293 23.76792,12.53031 3.26321,1.65307 6.63726,3.36155 9.94269,5.07115 3.12773,1.61689 6.3317,3.23152 9.42952,4.793 7.06305,3.55885 14.36656,7.23925 21.34398,11.23794 13.04051,7.47499 20.02849,16.99428 21.36275,29.10285 0.83984,7.6282 -1.43983,13.30823 -6.96863,17.36515 -3.116,2.28682 -6.53521,2.88722 -9.28172,3.37059 l -0.5079,0.0899 c -1.72016,0.30698 -4.06435,0.47602 -6.6009,0.47602 -4.40744,0 -8.81136,-0.49411 -11.78191,-1.32121 -2.11018,-0.5874 -7.40673,-2.17884 -11.00834,-4.25479 -11.66168,-6.72422 -16.13305,-16.45269 -13.28801,-28.92364 0.25688,-1.09734 0.48679,-1.99454 0.80466,-3.11223 -1.19702,0.21257 -2.05446,0.47263 -3.0421,0.77226 l -0.6815,0.20523 c -4.07197,1.20983 -6.2883,4.55951 -8.63424,8.10705 l -0.14897,0.22501 c -0.868,1.31216 -1.38235,3.05795 -1.31021,4.44757 0.33899,6.48564 2.90193,12.77454 7.83604,19.22627 12.77894,16.71161 28.96771,25.37779 49.4906,26.49321 0.88736,0.0481 1.76239,0.0729 2.60224,0.0729 7.12287,0 12.8892,-1.75822 17.62918,-5.37587 z m -59.35295,3.20721 c 2.0005,0 3.96288,-0.14077 5.86603,-0.42005 -6.07775,-3.98512 -11.48046,-9.20835 -16.87672,-16.29722 l -0.4164,-0.54725 c -4.89305,-6.42798 -9.95267,-13.07531 -15.42868,-19.14882 -5.12296,-5.68059 -11.12564,-8.56102 -17.83973,-8.56102 -1.12488,0 -2.28788,0.0814 -3.45733,0.2414 -4.05497,0.55574 -7.92401,1.91878 -12.54083,4.45662 0.96946,0.40761 2.031,0.74569 3.42156,0.97465 1.63923,0.26854 3.37933,0.57948 4.99745,1.03233 2.55766,0.71572 4.83733,1.93404 6.96979,3.72393 3.52947,2.96297 5.78275,5.54716 7.77739,8.91945 2.31369,3.91276 5.04261,7.75484 7.68179,11.47029 l 0.29324,0.41327 c 6.1106,8.60456 17.15765,13.74185 29.55068,13.74242 5.8e-4,0 5.8e-4,0 0.002,0 z m -84.97417,4.59739 c 4.43031,0 7.63604,-0.73439 10.90453,-4.48828 2.29902,-2.63168 3.93649,-5.36117 5.67014,-8.25065 0.80173,-1.33648 1.63102,-2.71875 2.52717,-4.08236 3.99104,-6.07181 7.9117,-9.96139 12.7115,-12.61229 1.45389,-0.80279 2.64153,-1.57562 3.62917,-2.36202 1.67969,-1.3376 1.82104,-2.0929 0.68853,-3.67418 -1.09848,-1.53321 -2.08789,-2.74022 -4.82384,-4.31302 -0.58238,-0.33525 -2.36295,-0.78356 -3.38578,-0.78356 -0.139,0 -0.21231,0.009 -0.23695,0.0124 -1.98642,0.30529 -2.87905,0.57044 -5.10418,1.38397 -6.63433,2.69104 -9.76147,5.33516 -12.86046,10.8682 -0.84278,1.50438 -1.63864,3.08565 -2.40811,4.61548 -0.40468,0.80392 -0.80935,1.60784 -1.22283,2.40668 l -0.41992,0.81353 c -0.65452,1.26976 -1.33132,2.5825 -2.05329,3.86074 -0.37535,0.66428 -1.15537,2.04542 -2.88551,2.04542 -0.59821,0 -1.16828,-0.1696 -1.79816,-0.37482 -5.6332,-1.83398 -11.59365,-2.72497 -18.22212,-2.72497 -5.58627,0 -11.62414,0.6445 -18.45964,1.97023 l -0.50731,0.0978 c -2.89958,0.55799 -4.37049,0.84123 -6.15106,2.60172 0.18768,0.013 0.37946,0.0283 0.57828,0.0458 0.41288,0.0373 4.20569,0.37143 4.58807,0.39631 14.52256,1.21153 24.74267,4.73533 35.27713,12.1634 l 0.11436,0.0814 c 0.0991,0.0707 0.23694,0.16961 0.33136,0.22614 l 0.82343,0.0232 c 0.93896,0.0271 1.82573,0.0531 2.69432,0.0531 5.8e-4,5.7e-4 5.8e-4,5.7e-4 0.001,5.7e-4 z m 157.27086,-69.90044 c -3.49663,-8.70576 -8.70052,-17.45674 -16.37762,-27.53798 -5.66252,-7.43542 -11.47811,-15.61371 -15.65565,-25.02502 -2.3823,-5.36569 -3.23857,-10.0247 -2.69783,-14.66223 0.38238,-3.27844 0.70495,-6.47773 0.451,-9.57356 -0.33899,-4.12476 -1.49495,-7.25451 -3.60982,-9.7262 -3.38461,2.31113 -5.95693,5.56187 -8.2237,10.34977 -3.7277,7.87301 -3.21687,16.13836 1.60638,26.01098 4.84907,9.92295 12.11973,18.34264 19.23087,25.93862 14.41113,14.79057 20.7358,22.54145 27.41997,36.47213 0.5642,0.86498 1.1806,1.70621 1.83043,2.55819 -0.43048,-5.28033 -2.12543,-10.20109 -3.97403,-14.8047 z m -12.68686,-83.27426 c 1.28499,-6.86555 1.39818,-12.55519 0.53839,-17.87565 -1.92954,-11.93218 -7.34925,-20.52487 -16.56881,-26.26821 -4.69482,-2.92454 -10.03067,-4.28645 -16.7905,-4.28645 -2.2697,0 -4.52063,0.16169 -6.92992,0.38726 -0.0381,0.003 -1.58703,0.16451 -1.78526,0.65863 -0.0974,0.24253 0.37711,0.92264 0.74894,1.25563 0.79586,0.71064 1.97881,1.24715 3.15412,1.71243 1.72134,0.68181 4.7218,1.29521 6.11822,1.48969 2.06619,0.28719 5.06372,0.94356 7.03901,1.52417 2.95588,0.86893 1.88144,2.87365 0.71023,4.02978 -1.79758,1.77349 -3.26614,2.58928 -5.87659,2.58928 -1.06271,0 -2.19639,-0.18034 -3.56935,-0.56817 -4.44556,-1.25563 -8.88291,-2.73232 -13.17423,-4.16038 l -2.23041,-0.74117 c -2.66323,-0.8825 -5.41209,-1.33025 -8.16916,-1.33025 -1.22341,0 -3.02274,0.0662 -4.2573,0.24083 -2.03804,0.28776 -2.20988,0.61284 -2.17879,0.74174 0.0921,0.38104 0.66742,1.43371 1.86971,2.19071 2.46794,1.5547 4.95229,2.58759 6.30473,3.07435 9.26178,3.33327 7.76038,5.40583 5.74287,6.39519 -2.32366,1.13917 -6.20678,1.74296 -12.19656,0.45566 -4.24147,-0.9119 -8.40728,-2.33148 -12.47749,-3.53962 -1.61342,-0.47942 -3.22684,-0.95826 -4.8432,-1.42807 -2.41221,-0.70159 -4.73118,-1.05719 -6.89297,-1.05719 -2.48376,0 -4.79041,0.44436 -7.05014,1.35852 -1.06741,0.43193 -1.4193,0.82145 -1.45801,0.9837 -0.0387,0.15943 0.0944,0.64902 0.83927,1.47612 0.80993,0.9006 1.75476,1.82154 2.80809,2.73853 5.364,4.66976 12.10624,7.68192 21.85891,9.76748 10.95262,2.34222 22.36212,2.75266 33.39568,3.16424 4.49072,0.16734 6.23258,0.96561 7.61082,2.15453 2.8298,2.44003 10.02011,9.41074 10.95849,10.30681 3.60278,3.44295 7.86478,5.11637 13.02996,5.11637 2.94943,-5.6e-4 3.29194,-0.26231 3.72125,-2.55649 z m -16.85091,-11.60371 c -1.41754,-2.40272 -0.67094,-2.81146 1.83277,-2.21446 1.92602,0.45963 5.74286,2.30831 6.23141,5.13503 0.28679,1.65929 0.35189,2.71592 -1.80931,2.02959 -3.27376,-1.03967 -5.1124,-3.01272 -6.25487,-4.95016 z"
       id="snake"
       style="stroke-width:0.5758186" />
  </g>
</svg>
