<?xml version="1.0" encoding="UTF-8" standalone="no"?>
<svg
   xmlns:dc="http://purl.org/dc/elements/1.1/"
   xmlns:cc="http://creativecommons.org/ns#"
   xmlns:rdf="http://www.w3.org/1999/02/22-rdf-syntax-ns#"
   xmlns:svg="http://www.w3.org/2000/svg"
   xmlns="http://www.w3.org/2000/svg"
   xmlns:sodipodi="http://sodipodi.sourceforge.net/DTD/sodipodi-0.dtd"
   xmlns:inkscape="http://www.inkscape.org/namespaces/inkscape"
   id="Layer_1"
   version="1.2"
   viewBox="0 0 512 512"
   xml:space="preserve"
   sodipodi:docname="iconfinder-icon-video-mkv.svg"
   inkscape:version="0.92.3 (2405546, 2018-03-11)"><metadata
     id="metadata19"><rdf:RDF><cc:Work
         rdf:about=""><dc:format>image/svg+xml</dc:format><dc:type
           rdf:resource="http://purl.org/dc/dcmitype/StillImage" /><dc:title></dc:title></cc:Work></rdf:RDF></metadata><defs
     id="defs17" /><sodipodi:namedview
     pagecolor="#ffffff"
     bordercolor="#666666"
     borderopacity="1"
     objecttolerance="10"
     gridtolerance="10"
     guidetolerance="10"
     inkscape:pageopacity="0"
     inkscape:pageshadow="2"
     inkscape:window-width="791"
     inkscape:window-height="480"
     id="namedview15"
     showgrid="false"
     inkscape:zoom="0.23046875"
     inkscape:cx="185.2514"
     inkscape:cy="230.88743"
     inkscape:window-x="2525"
     inkscape:window-y="355"
     inkscape:window-maximized="0"
     inkscape:current-layer="XMLID_1526_" /><g
     id="XMLID_1526_"><path
       d="M456.1,75.1L397.6,7.3c-1.8-1.8-4.9-1.8-6.7,0l-58.5,67.8c-2.6,2.6-0.6,6.7,3.3,6.7h27.4   V135h62.1V81.8h27.4C456.7,81.8,458.7,77.7,456.1,75.1z"
       fill="#006A9C"
       id="XMLID_665_" /><rect
       fill="#006A9C"
       height="24.2"
       id="XMLID_664_"
       width="62.1"
       x="363.2"
       y="144.6" /><path
       d="M363.2,187.3c0,2.2,2,4,4.5,4h53.1c2.5,0,4.5-1.8,4.5-4v-8.9h-62.1V187.3z"
       fill="#006A9C"
       id="XMLID_663_" /><path
       d="M386.7,464.2c0,15.8-12.8,28.6-28.6,28.6H109.5c-15.8,0-28.6-12.8-28.6-28.6v-8.8H67.7V469   c0,20.5,16.6,37,37,37h258.1c20.5,0,37-16.6,37-37V200.4h-13.2V464.2z"
       fill="#006A9C"
       id="XMLID_662_" /><path
       d="M80.9,110.3c0-15.8,12.8-28.6,28.6-28.6h213.2c-1.4-4.4-0.3-9.3,3-12.7l0.4-0.4H104.8   c-20.5,0-37,16.6-37,37V333h13.2V110.3z"
       fill="#006A9C"
       id="XMLID_661_" /><path
       d="M345.4,394.3L345.4,394.3c0-28.7-23.3-52.1-52.1-52.1H54.7v104.1h238.7   C322.1,446.3,345.4,423,345.4,394.3z M171.4,424.3h-10v-43.1l-0.2,0l-16.5,43.1h-6.9l-16.8-44l-0.2,0.1v43.9h-10v-60h13.1   l17.2,46.2h0.2l17.3-46.2h12.8V424.3z M221.1,424.3l-19.6-26h-4.9v26h-10v-60h10v25.4h3.9l19.5-25.4h11.7l0.1,0.2l-22.5,28.2   l24.4,31.6H221.1z M268.1,424.3h-9.5l-21.4-60h10.7l14.3,43.7l1.1,4.4h0.2l1-4.3l14.3-43.8h10.7L268.1,424.3z"
       fill="#006A9C"
       id="XMLID_1527_" /><path
       inkscape:connector-curvature="0"
       style="fill:#006a9c;fill-opacity:1;stroke-width:6.62063169"
       d="m 275.47332,275.58417 c 3.4157,0 5.46511,-2.56656 5.46511,-5.13311 0,-2.56656 -2.73255,-5.13311 -5.46511,-5.13311 -2.73255,0 -5.46509,2.56655 -5.46509,5.13311 0,2.56655 2.73254,5.13311 5.46509,5.13311 z M 298.7,101.7 H 119.71798 c -6.83137,0 -12.29648,5.13311 -12.29648,11.54949 v 167.4678 c 0,6.41639 5.46511,11.54949 12.29648,11.54949 h 178.29888 c 6.83137,0 12.29648,-5.1331 12.29648,-11.54949 V 113.24949 C 310.99648,106.83311 305.53137,101.7 298.7,101.7 Z m 2.04942,179.65893 c 0,1.28328 -0.68314,1.92491 -2.04942,1.92491 H 119.71798 c -1.36628,0 -2.04942,-0.64163 -2.04942,-1.92491 v -23.74065 h 183.08086 z m 0,-34.00688 H 117.66856 V 144.04818 h 183.08086 z m 0,-112.92847 H 117.66856 v -21.17409 c 0,-1.28327 0.68314,-1.92491 2.04942,-1.92491 h 178.29888 c 1.36628,0 2.04942,0.64164 2.04942,1.92491 v 21.17409 z m -125.6973,141.16059 c 2.73253,0 5.46509,-2.56656 5.46509,-5.13311 0,-2.56656 -2.73256,-5.13311 -5.46509,-5.13311 -2.73256,0 -5.46511,2.56655 -5.46511,5.13311 0,2.56655 2.73255,5.13311 5.46511,5.13311 z m 66.94746,-157.84319 c -3.41567,0 -5.46509,2.56655 -5.46509,5.13311 0,2.56655 2.73256,5.13311 5.46509,5.13311 2.73256,0 5.46511,-2.56656 5.46511,-5.13311 0,-2.56656 -2.04942,-5.13311 -5.46511,-5.13311 z m 0,157.84319 c 2.73256,0 5.46511,-2.56656 5.46511,-5.13311 0,-2.56656 -2.73255,-5.13311 -5.46511,-5.13311 -3.41567,0 -5.46509,2.56655 -5.46509,5.13311 0,2.56655 2.73256,5.13311 5.46509,5.13311 z m -33.47372,0 c 3.41567,0 5.46509,-2.56656 5.46509,-5.13311 0,-2.56656 -2.73255,-5.13311 -5.46509,-5.13311 -2.73255,0 -5.46511,2.56655 -5.46511,5.13311 0,2.56655 2.73256,5.13311 5.46511,5.13311 z m -66.94748,0 c 3.41569,0 5.46509,-2.56656 5.46509,-5.13311 0,-2.56656 -2.73254,-5.13311 -5.46509,-5.13311 -2.73256,0 -5.46511,2.56655 -5.46511,5.13311 0,2.56655 2.73255,5.13311 5.46511,5.13311 z m 66.94748,-157.84319 c -2.73255,0 -5.46511,2.56655 -5.46511,5.13311 0,2.56655 2.73256,5.13311 5.46511,5.13311 3.41567,0 5.46509,-2.56656 5.46509,-5.13311 0,-2.56656 -2.04942,-5.13311 -5.46509,-5.13311 z m -33.47374,0 c -2.73256,0 -5.46511,2.56655 -5.46511,5.13311 0,2.56655 2.73255,5.13311 5.46511,5.13311 2.73253,0 5.46509,-2.56656 5.46509,-5.13311 0,-2.56656 -2.04942,-5.13311 -5.46509,-5.13311 z m 13.66274,113.57009 c 0.68313,0.64164 1.36627,0.64164 2.04941,0.64164 1.36628,0 2.04942,-0.64164 3.4157,-1.28328 l 43.7208,-32.72358 c 1.36628,-0.64164 2.04941,-2.56655 2.04941,-3.84983 0,-1.28328 -0.68313,-2.56656 -2.04941,-3.84983 l -43.7208,-32.7236 c -1.36628,-1.28328 -3.4157,-1.28328 -5.46511,-0.64164 -2.0494,0.64164 -2.73254,2.56655 -2.73254,4.49147 v 65.44718 c 0,1.92492 0.68314,3.84983 2.73254,4.49147 z m 7.51452,-59.67242 30.74119,22.45737 -30.74119,22.45736 z m 79.24394,-53.89767 c -2.73255,0 -5.46509,2.56655 -5.46509,5.13311 0,2.56655 2.73254,5.13311 5.46509,5.13311 3.4157,0 5.46511,-2.56656 5.46511,-5.13311 0,-2.56656 -2.04941,-5.13311 -5.46511,-5.13311 z m -133.89494,0 c -2.73256,0 -5.46511,2.56655 -5.46511,5.13311 0,2.56655 2.73255,5.13311 5.46511,5.13311 3.41569,0 5.46509,-2.56656 5.46509,-5.13311 0,-2.56656 -2.0494,-5.13311 -5.46509,-5.13311 z"
       id="path2" /></g></svg>