<?xml version="1.0" encoding="UTF-8" standalone="no"?>
<svg
   xmlns:dc="http://purl.org/dc/elements/1.1/"
   xmlns:cc="http://creativecommons.org/ns#"
   xmlns:rdf="http://www.w3.org/1999/02/22-rdf-syntax-ns#"
   xmlns:svg="http://www.w3.org/2000/svg"
   xmlns="http://www.w3.org/2000/svg"
   xmlns:sodipodi="http://sodipodi.sourceforge.net/DTD/sodipodi-0.dtd"
   xmlns:inkscape="http://www.inkscape.org/namespaces/inkscape"
   width="512"
   height="512"
   version="1.1"
   id="svg24"
   sodipodi:docname="iconfinder-icon-sound-mp3.svg"
   inkscape:version="0.92.3 (2405546, 2018-03-11)">
  <metadata
     id="metadata30">
    <rdf:RDF>
      <cc:Work
         rdf:about="">
        <dc:format>image/svg+xml</dc:format>
        <dc:type
           rdf:resource="http://purl.org/dc/dcmitype/StillImage" />
        <dc:title></dc:title>
      </cc:Work>
    </rdf:RDF>
  </metadata>
  <defs
     id="defs28" />
  <sodipodi:namedview
     pagecolor="#ffffff"
     bordercolor="#666666"
     borderopacity="1"
     objecttolerance="10"
     gridtolerance="10"
     guidetolerance="10"
     inkscape:pageopacity="0"
     inkscape:pageshadow="2"
     inkscape:window-width="1195"
     inkscape:window-height="944"
     id="namedview26"
     showgrid="false"
     inkscape:zoom="1.1313709"
     inkscape:cx="125.61475"
     inkscape:cy="176.9315"
     inkscape:window-x="1402"
     inkscape:window-y="68"
     inkscape:window-maximized="0"
     inkscape:current-layer="g22"
     inkscape:snap-text-baseline="true" />
  <g
     id="g5">
    <title
       id="title2">background</title>
    <rect
       fill="none"
       id="canvas_background"
       height="402"
       width="582"
       y="-1"
       x="-1" />
  </g>
  <g
     id="g22">
    <title
       id="title7">Layer 1</title>
    <path
       id="XMLID_255_"
       d="m456.1,75.1l-58.5,-67.8c-1.8,-1.8 -4.9,-1.8 -6.7,0l-58.5,67.8c-2.6,2.6 -0.6,6.7 3.3,6.7l27.4,0l0,53.2l62.1,0l0,-53.2l27.4,0c4.1,0 6.1,-4.1 3.5,-6.7z"
       style="fill:#00007f;fill-opacity:1"
       fill="#1d409d" />
    <rect
       y="144.6"
       x="363.2"
       width="62.1"
       id="XMLID_254_"
       height="24.2"
       style="fill:#00007f;fill-opacity:1"
       fill="#1d409d" />
    <path
       id="XMLID_253_"
       d="m363.2,187.3c0,2.2 2,4 4.5,4l53.1,0c2.5,0 4.5,-1.8 4.5,-4l0,-8.9l-62.1,0l0,8.9z"
       fill="#1d409d"
       style="fill:#00007f;fill-opacity:1" />
    <path
       id="XMLID_252_"
       d="m387.497007,464.2c0,15.8 -12.8,28.6 -28.6,28.6l-248.6,0c-15.8,0 -28.6,-12.8 -28.6,-28.6l0,-8.8l-13.2,0l0,13.6c0,20.5 16.6,37 37,37l258.1,0c20.5,0 37,-16.6 37,-37l0,-268.6l-13.2,0l0,263.8l0.1,0z"
       style="fill:#00007f;fill-opacity:1"
       fill="#1d409d" />
    <path
       id="XMLID_251_"
       d="m80.9,110.3c0,-15.8 12.8,-28.6 28.6,-28.6l213.2,0c-1.4,-4.4 -0.3,-9.3 3,-12.7l0.4,-0.4l-221.3,0c-20.5,0 -37,16.6 -37,37l0,227.4l13.2,0l0,-222.7l-0.1,0z"
       style="fill:#00007f;fill-opacity:1"
       fill="#1d409d" />
    <path
       style="fill:#00007f;fill-opacity:1"
       d="M 59.123047 344.42383 L 59.123047 448.52539 L 297.82422 448.52539 C 326.52422 448.52539 349.82422 425.22539 349.82422 396.52539 C 349.82422 367.82539 326.52461 344.42383 297.72461 344.42383 L 59.123047 344.42383 z M 121.20703 367.9043 C 122.90581 367.9043 124.52714 368.0245 126.08008 368.25 L 116.31836 368.25 C 117.87682 368.02448 119.50273 367.9043 121.20703 367.9043 z M 207.09766 368.70898 C 212.68793 368.70898 217.11024 369.98503 220.36719 372.53711 C 223.62413 375.06489 225.25391 378.49197 225.25391 382.81836 C 225.25391 385.83225 224.38976 388.38433 222.66406 390.47461 C 220.93837 392.54058 218.48481 393.97331 215.30078 394.77539 C 218.82509 395.52886 221.57031 397.09657 223.53906 399.47852 C 225.53212 401.86046 226.5293 404.80273 226.5293 408.30273 C 226.5293 413.67426 224.68273 417.83051 220.98828 420.77148 C 217.29384 423.71246 212.04384 425.18164 205.23828 425.18164 C 202.95356 425.18164 200.59462 424.95204 198.16406 424.49023 C 195.75781 424.05273 193.2678 423.38368 190.69141 422.48438 L 190.69141 415.375 C 192.73307 416.56597 194.96788 417.46463 197.39844 418.07227 C 199.82899 418.6799 202.37023 418.98437 205.01953 418.98438 C 209.63759 418.98438 213.14844 418.07292 215.55469 416.25 C 217.98524 414.42708 219.20117 411.77843 219.20117 408.30273 C 219.20117 405.0944 218.07096 402.58963 215.81055 400.79102 C 213.57444 398.9681 210.45182 398.05664 206.44141 398.05664 L 200.09766 398.05664 L 200.09766 392.00586 L 206.73242 392.00586 C 210.35395 392.00586 213.12478 391.28754 215.04492 389.85352 C 216.96506 388.39518 217.92578 386.30621 217.92578 383.58398 C 217.92578 380.78885 216.9286 378.64865 214.93555 377.16602 C 212.9668 375.65907 210.13585 374.90625 206.44141 374.90625 C 204.42405 374.90625 202.2602 375.125 199.95117 375.5625 C 197.64214 376 195.10286 376.6799 192.33203 377.60352 L 192.33203 371.04102 C 195.12717 370.26324 197.73937 369.6799 200.16992 369.29102 C 202.62478 368.90213 204.93446 368.70898 207.09766 368.70898 z M 82.810547 369.69336 L 93.785156 369.69336 L 107.67578 406.73438 L 121.63867 369.69336 L 132.61328 369.69336 L 132.61328 424.125 L 125.42969 424.125 L 125.42969 376.32812 L 111.39453 413.66211 L 103.99219 413.66211 L 89.957031 376.32812 L 89.957031 424.125 L 82.810547 424.125 L 82.810547 369.69336 z M 147.26953 369.69336 L 163.89453 369.69336 C 169.99523 369.69336 174.59983 371.07878 177.71094 373.84961 C 180.84635 376.59614 182.41406 380.63021 182.41406 385.95312 C 182.41406 391.32465 180.84635 395.38433 177.71094 398.13086 C 174.59983 400.87739 169.99523 402.25 163.89453 402.25 L 154.63281 402.25 L 154.63281 424.125 L 147.26953 424.125 L 147.26953 369.69336 z M 154.63281 375.74414 L 154.63281 396.19727 L 163.89453 396.19727 C 167.32161 396.19727 169.97027 395.31141 171.8418 393.53711 C 173.71332 391.7628 174.64844 389.23437 174.64844 385.95312 C 174.64844 382.69618 173.71332 380.18056 171.8418 378.40625 C 169.97027 376.63194 167.32161 375.74414 163.89453 375.74414 L 154.63281 375.74414 z "
       id="XMLID_1062_" />
    <flowRoot
       xml:space="preserve"
       id="flowRoot887"
       style="font-style:normal;font-weight:normal;font-size:40px;line-height:1.25;font-family:sans-serif;letter-spacing:0px;word-spacing:0px;fill:#ff0000;fill-opacity:0;stroke:none;"><flowRegion
         id="flowRegion889"
         style="fill:#ff0000;fill-opacity:0;"><rect
           id="rect891"
           width="108.125"
           height="51.25"
           x="80.625"
           y="364.5"
           style="fill:#ff0000;fill-opacity:0;" /></flowRegion><flowPara
         id="flowPara893"
         style="fill:#ff0000;-inkscape-font-specification:'sans-serif, Normal';font-family:sans-serif;font-weight:normal;font-style:normal;font-stretch:normal;font-variant:normal;font-size:53.33333333px;text-anchor:start;text-align:start;writing-mode:lr;font-variant-ligatures:normal;font-variant-caps:normal;font-variant-numeric:normal;font-feature-settings:normal;fill-opacity:0;">ODS</flowPara></flowRoot>    <g
       transform="translate(-16.911475,-92.29208)"
       id="g20"
       style="fill:#00007f;fill-opacity:1">
      <path
         inkscape:connector-curvature="0"
         id="path18"
         d="m 188.826,406.457 c -19.775,0 -35.863,-14.641 -35.863,-32.631 0,-17.994 16.088,-32.635 35.863,-32.635 6.98,0 13.613,1.783 19.249,5.057 V 238.134 c 0,-3.989 2.956,-7.434 7.028,-8.184 l 100.698,-13.18 c 2.77,-0.353 5.158,0.62 6.849,2.337 1.572,1.581 2.474,3.727 2.474,5.888 v 123.289 c 0,17.988 -16.092,32.629 -35.863,32.629 -19.697,0 -35.722,-14.641 -35.722,-32.629 0,-22.275 18.629,-32.244 37.091,-32.244 9.036,0 17.587,2.273 24.451,6.326 v -54.441 l -96.827,12.713 -0.136,76.219 c 0,1.877 0.125,3.686 0.256,5.623 0.194,2.846 0.416,6.07 0.325,10.129 -0.471,21.192 -11.639,33.848 -29.873,33.848 z m 0,-55.223 c -14.237,0 -25.821,10.133 -25.821,22.592 0,12.455 11.584,22.588 25.821,22.588 16.793,0 19.636,-15.053 19.835,-24.027 0.078,-3.607 -0.116,-6.463 -0.305,-9.227 -0.101,-1.482 -0.194,-2.895 -0.245,-4.32 -4.813,-4.858 -11.741,-7.606 -19.285,-7.606 z m 101.803,-25.156 c -12.479,0 -27.048,5.816 -27.048,22.205 0,12.453 11.517,22.588 25.679,22.588 14.237,0 25.82,-10.135 25.82,-22.588 V 334.9 c -5.55,-5.474 -14.721,-8.822 -24.451,-8.822 z m -72.512,-86.403 v 30.852 l 96.963,-12.732 v -30.806 z"
         style="fill:#00007f;fill-opacity:1" />
    </g>
  </g>
</svg>
