<?xml version="1.0" encoding="UTF-8" standalone="no"?>
<svg
   xmlns:dc="http://purl.org/dc/elements/1.1/"
   xmlns:cc="http://creativecommons.org/ns#"
   xmlns:rdf="http://www.w3.org/1999/02/22-rdf-syntax-ns#"
   xmlns:svg="http://www.w3.org/2000/svg"
   xmlns="http://www.w3.org/2000/svg"
   xmlns:sodipodi="http://sodipodi.sourceforge.net/DTD/sodipodi-0.dtd"
   xmlns:inkscape="http://www.inkscape.org/namespaces/inkscape"
   width="512"
   height="512"
   version="1.1"
   id="svg24"
   sodipodi:docname="iconfinder-icon-video-mp4.svg"
   inkscape:version="0.92.3 (2405546, 2018-03-11)">
  <metadata
     id="metadata30">
    <rdf:RDF>
      <cc:Work
         rdf:about="">
        <dc:format>image/svg+xml</dc:format>
        <dc:type
           rdf:resource="http://purl.org/dc/dcmitype/StillImage" />
        <dc:title></dc:title>
      </cc:Work>
    </rdf:RDF>
  </metadata>
  <defs
     id="defs28" />
  <sodipodi:namedview
     pagecolor="#ffffff"
     bordercolor="#666666"
     borderopacity="1"
     objecttolerance="10"
     gridtolerance="10"
     guidetolerance="10"
     inkscape:pageopacity="0"
     inkscape:pageshadow="2"
     inkscape:window-width="1195"
     inkscape:window-height="944"
     id="namedview26"
     showgrid="false"
     inkscape:zoom="1.1313709"
     inkscape:cx="125.61475"
     inkscape:cy="176.9315"
     inkscape:window-x="1402"
     inkscape:window-y="68"
     inkscape:window-maximized="0"
     inkscape:current-layer="g22"
     inkscape:snap-text-baseline="true" />
  <g
     id="g5">
    <title
       id="title2">background</title>
    <rect
       fill="none"
       id="canvas_background"
       height="402"
       width="582"
       y="-1"
       x="-1" />
  </g>
  <g
     id="g22">
    <title
       id="title7">Layer 1</title>
    <path
       id="XMLID_255_"
       d="m456.1,75.1l-58.5,-67.8c-1.8,-1.8 -4.9,-1.8 -6.7,0l-58.5,67.8c-2.6,2.6 -0.6,6.7 3.3,6.7l27.4,0l0,53.2l62.1,0l0,-53.2l27.4,0c4.1,0 6.1,-4.1 3.5,-6.7z"
       style="fill:#fd4233;fill-opacity:1"
       fill="#1d409d" />
    <rect
       y="144.6"
       x="363.2"
       width="62.1"
       id="XMLID_254_"
       height="24.2"
       style="fill:#fd4233;fill-opacity:1"
       fill="#1d409d" />
    <path
       id="XMLID_253_"
       d="m363.2,187.3c0,2.2 2,4 4.5,4l53.1,0c2.5,0 4.5,-1.8 4.5,-4l0,-8.9l-62.1,0l0,8.9z"
       fill="#1d409d"
       style="fill:#fd4233;fill-opacity:1" />
    <path
       id="XMLID_252_"
       d="m387.497007,464.2c0,15.8 -12.8,28.6 -28.6,28.6l-248.6,0c-15.8,0 -28.6,-12.8 -28.6,-28.6l0,-8.8l-13.2,0l0,13.6c0,20.5 16.6,37 37,37l258.1,0c20.5,0 37,-16.6 37,-37l0,-268.6l-13.2,0l0,263.8l0.1,0z"
       style="fill:#fd4233;fill-opacity:1"
       fill="#1d409d" />
    <path
       id="XMLID_251_"
       d="m80.9,110.3c0,-15.8 12.8,-28.6 28.6,-28.6l213.2,0c-1.4,-4.4 -0.3,-9.3 3,-12.7l0.4,-0.4l-221.3,0c-20.5,0 -37,16.6 -37,37l0,227.4l13.2,0l0,-222.7l-0.1,0z"
       style="fill:#fd4233;fill-opacity:1"
       fill="#1d409d" />
    <path
       style="fill:#fd4233;fill-opacity:1"
       d="M 59.123047 344.42383 L 59.123047 448.52539 L 297.82422 448.52539 C 326.52422 448.52539 349.82422 425.22539 349.82422 396.52539 C 349.82422 367.82539 326.52461 344.42383 297.72461 344.42383 L 59.123047 344.42383 z M 100.57812 367.69336 L 111.55273 367.69336 L 125.44336 404.73438 L 139.40625 367.69336 L 150.38086 367.69336 L 150.38086 422.125 L 143.19727 422.125 L 143.19727 374.32812 L 129.16211 411.66211 L 121.75977 411.66211 L 107.72461 374.32812 L 107.72461 422.125 L 100.57812 422.125 L 100.57812 367.69336 z M 165.03711 367.69336 L 181.66211 367.69336 C 187.7628 367.69336 192.3674 369.07878 195.47852 371.84961 C 198.61393 374.59614 200.18164 378.63021 200.18164 383.95312 C 200.18164 389.32465 198.61393 393.38433 195.47852 396.13086 C 192.3674 398.87739 187.7628 400.25 181.66211 400.25 L 172.40039 400.25 L 172.40039 422.125 L 165.03711 422.125 L 165.03711 367.69336 z M 229.05664 367.69336 L 238.31836 367.69336 L 238.31836 403.16602 L 246.08398 403.16602 L 246.08398 409.29102 L 238.31836 409.29102 L 238.31836 422.125 L 230.99023 422.125 L 230.99023 409.29102 L 206.41602 409.29102 L 206.41602 402.18164 L 229.05664 367.69336 z M 121.20703 367.9043 C 122.90581 367.9043 124.52714 368.0245 126.08008 368.25 L 116.31836 368.25 C 117.87682 368.02448 119.50273 367.9043 121.20703 367.9043 z M 172.40039 373.74414 L 172.40039 394.19727 L 181.66211 394.19727 C 185.08919 394.19727 187.73785 393.31141 189.60938 391.53711 C 191.4809 389.7628 192.41602 387.23437 192.41602 383.95312 C 192.41602 380.69618 191.4809 378.18056 189.60938 376.40625 C 187.73785 374.63194 185.08919 373.74414 181.66211 373.74414 L 172.40039 373.74414 z M 230.99023 374.10938 L 212.39648 403.16602 L 230.99023 403.16602 L 230.99023 374.10938 z "
       id="XMLID_1062_" />
    <flowRoot
       xml:space="preserve"
       id="flowRoot887"
       style="font-style:normal;font-weight:normal;font-size:40px;line-height:1.25;font-family:sans-serif;letter-spacing:0px;word-spacing:0px;fill:#ff0000;fill-opacity:0;stroke:none;"><flowRegion
         id="flowRegion889"
         style="fill:#ff0000;fill-opacity:0;"><rect
           id="rect891"
           width="108.125"
           height="51.25"
           x="80.625"
           y="364.5"
           style="fill:#ff0000;fill-opacity:0;" /></flowRegion><flowPara
         id="flowPara893"
         style="fill:#ff0000;-inkscape-font-specification:'sans-serif, Normal';font-family:sans-serif;font-weight:normal;font-style:normal;font-stretch:normal;font-variant:normal;font-size:53.33333333px;text-anchor:start;text-align:start;writing-mode:lr;font-variant-ligatures:normal;font-variant-caps:normal;font-variant-numeric:normal;font-feature-settings:normal;fill-opacity:0;">ODS</flowPara></flowRoot>    <path
       inkscape:connector-curvature="0"
       style="fill:#fd4233;stroke-width:6.62063169;fill-opacity:1"
       d="m 287.18049,286.64196 c 3.4157,0 5.46511,-2.56656 5.46511,-5.13311 0,-2.56656 -2.73255,-5.13311 -5.46511,-5.13311 -2.73255,0 -5.46509,2.56655 -5.46509,5.13311 0,2.56655 2.73254,5.13311 5.46509,5.13311 z M 310.40717,112.75779 H 131.42515 c -6.83137,0 -12.29648,5.13311 -12.29648,11.54949 v 167.4678 c 0,6.41639 5.46511,11.54949 12.29648,11.54949 h 178.29888 c 6.83137,0 12.29648,-5.1331 12.29648,-11.54949 v -167.4678 c 0.68314,-6.41638 -4.78197,-11.54949 -11.61334,-11.54949 z m 2.04942,179.65893 c 0,1.28328 -0.68314,1.92491 -2.04942,1.92491 H 131.42515 c -1.36628,0 -2.04942,-0.64163 -2.04942,-1.92491 v -23.74065 h 183.08086 z m 0,-34.00688 H 129.37573 V 155.10597 h 183.08086 z m 0,-112.92847 H 129.37573 v -21.17409 c 0,-1.28327 0.68314,-1.92491 2.04942,-1.92491 h 178.29888 c 1.36628,0 2.04942,0.64164 2.04942,1.92491 v 21.17409 z m -125.6973,141.16059 c 2.73253,0 5.46509,-2.56656 5.46509,-5.13311 0,-2.56656 -2.73256,-5.13311 -5.46509,-5.13311 -2.73256,0 -5.46511,2.56655 -5.46511,5.13311 0,2.56655 2.73255,5.13311 5.46511,5.13311 z m 66.94746,-157.84319 c -3.41567,0 -5.46509,2.56655 -5.46509,5.13311 0,2.56655 2.73256,5.13311 5.46509,5.13311 2.73256,0 5.46511,-2.56656 5.46511,-5.13311 0,-2.56656 -2.04942,-5.13311 -5.46511,-5.13311 z m 0,157.84319 c 2.73256,0 5.46511,-2.56656 5.46511,-5.13311 0,-2.56656 -2.73255,-5.13311 -5.46511,-5.13311 -3.41567,0 -5.46509,2.56655 -5.46509,5.13311 0,2.56655 2.73256,5.13311 5.46509,5.13311 z m -33.47372,0 c 3.41567,0 5.46509,-2.56656 5.46509,-5.13311 0,-2.56656 -2.73255,-5.13311 -5.46509,-5.13311 -2.73255,0 -5.46511,2.56655 -5.46511,5.13311 0,2.56655 2.73256,5.13311 5.46511,5.13311 z m -66.94748,0 c 3.41569,0 5.46509,-2.56656 5.46509,-5.13311 0,-2.56656 -2.73254,-5.13311 -5.46509,-5.13311 -2.73256,0 -5.46511,2.56655 -5.46511,5.13311 0,2.56655 2.73255,5.13311 5.46511,5.13311 z m 66.94748,-157.84319 c -2.73255,0 -5.46511,2.56655 -5.46511,5.13311 0,2.56655 2.73256,5.13311 5.46511,5.13311 3.41567,0 5.46509,-2.56656 5.46509,-5.13311 0,-2.56656 -2.04942,-5.13311 -5.46509,-5.13311 z m -33.47374,0 c -2.73256,0 -5.46511,2.56655 -5.46511,5.13311 0,2.56655 2.73255,5.13311 5.46511,5.13311 2.73253,0 5.46509,-2.56656 5.46509,-5.13311 0,-2.56656 -2.04942,-5.13311 -5.46509,-5.13311 z m 13.66274,113.57009 c 0.68313,0.64164 1.36627,0.64164 2.04941,0.64164 1.36628,0 2.04942,-0.64164 3.4157,-1.28328 l 43.7208,-32.72358 c 1.36628,-0.64164 2.04941,-2.56655 2.04941,-3.84983 0,-1.28328 -0.68313,-2.56656 -2.04941,-3.84983 l -43.7208,-32.7236 c -1.36628,-1.28328 -3.4157,-1.28328 -5.46511,-0.64164 -2.0494,0.64164 -2.73254,2.56655 -2.73254,4.49147 v 65.44718 c 0,1.92492 0.68314,3.84983 2.73254,4.49147 z m 7.51452,-59.67242 30.74119,22.45737 -30.74119,22.45736 z m 79.24394,-53.89767 c -2.73255,0 -5.46509,2.56655 -5.46509,5.13311 0,2.56655 2.73254,5.13311 5.46509,5.13311 3.4157,0 5.46511,-2.56656 5.46511,-5.13311 0,-2.56656 -2.04941,-5.13311 -5.46511,-5.13311 z m -133.89494,0 c -2.73256,0 -5.46511,2.56655 -5.46511,5.13311 0,2.56655 2.73255,5.13311 5.46511,5.13311 3.41569,0 5.46509,-2.56656 5.46509,-5.13311 0,-2.56656 -2.0494,-5.13311 -5.46509,-5.13311 z"
       id="path2" />
  </g>
</svg>
