<?xml version="1.0" encoding="UTF-8" standalone="no"?>
<svg
   xmlns:dc="http://purl.org/dc/elements/1.1/"
   xmlns:cc="http://creativecommons.org/ns#"
   xmlns:rdf="http://www.w3.org/1999/02/22-rdf-syntax-ns#"
   xmlns:svg="http://www.w3.org/2000/svg"
   xmlns="http://www.w3.org/2000/svg"
   xmlns:sodipodi="http://sodipodi.sourceforge.net/DTD/sodipodi-0.dtd"
   xmlns:inkscape="http://www.inkscape.org/namespaces/inkscape"
   width="512"
   height="512"
   version="1.1"
   id="svg24"
   sodipodi:docname="iconfinder-icon-calc-ods.svg"
   inkscape:version="0.92.3 (2405546, 2018-03-11)">
  <metadata
     id="metadata30">
    <rdf:RDF>
      <cc:Work
         rdf:about="">
        <dc:format>image/svg+xml</dc:format>
        <dc:type
           rdf:resource="http://purl.org/dc/dcmitype/StillImage" />
        <dc:title />
      </cc:Work>
    </rdf:RDF>
  </metadata>
  <defs
     id="defs28" />
  <sodipodi:namedview
     pagecolor="#ffffff"
     bordercolor="#666666"
     borderopacity="1"
     objecttolerance="10"
     gridtolerance="10"
     guidetolerance="10"
     inkscape:pageopacity="0"
     inkscape:pageshadow="2"
     inkscape:window-width="1051"
     inkscape:window-height="445"
     id="namedview26"
     showgrid="false"
     inkscape:zoom="0.8"
     inkscape:cx="239.57812"
     inkscape:cy="152.26421"
     inkscape:window-x="2217"
     inkscape:window-y="427"
     inkscape:window-maximized="0"
     inkscape:current-layer="g22" />
  <g
     id="g5">
    <title
       id="title2">background</title>
    <rect
       fill="none"
       id="canvas_background"
       height="402"
       width="582"
       y="-1"
       x="-1" />
  </g>
  <g
     id="g22">
    <title
       id="title7">Layer 1</title>
    <rect
       y="158.6"
       x="120.3"
       width="227.1"
       id="XMLID_260_"
       height="19.1"
       style="fill:#207245;fill-opacity:1"
       fill="#1d409d" />
    <rect
       y="189.6"
       x="120.3"
       width="227.1"
       id="XMLID_259_"
       height="19.1"
       style="fill:#207245;fill-opacity:1"
       fill="#1d409d" />
    <rect
       y="220.7"
       x="120.3"
       width="227.1"
       id="XMLID_258_"
       height="19.1"
       style="fill:#207245;fill-opacity:1"
       fill="#1d409d" />
    <rect
       y="251.7"
       x="120.3"
       width="227.1"
       id="XMLID_257_"
       height="19.1"
       style="fill:#207245;fill-opacity:1"
       fill="#1d409d" />
    <rect
       y="282.7"
       x="120.3"
       width="176.5"
       id="XMLID_256_"
       height="19.1"
       style="fill:#207245;fill-opacity:1"
       fill="#1d409d" />
    <path
       id="XMLID_255_"
       d="m456.1,75.1l-58.5,-67.8c-1.8,-1.8 -4.9,-1.8 -6.7,0l-58.5,67.8c-2.6,2.6 -0.6,6.7 3.3,6.7l27.4,0l0,53.2l62.1,0l0,-53.2l27.4,0c4.1,0 6.1,-4.1 3.5,-6.7z"
       style="fill:#207245;fill-opacity:1"
       fill="#1d409d" />
    <rect
       y="144.6"
       x="363.2"
       width="62.1"
       id="XMLID_254_"
       height="24.2"
       style="fill:#207245;fill-opacity:1"
       fill="#1d409d" />
    <path
       id="XMLID_253_"
       d="m363.2,187.3c0,2.2 2,4 4.5,4l53.1,0c2.5,0 4.5,-1.8 4.5,-4l0,-8.9l-62.1,0l0,8.9z"
       fill="#1d409d"
       style="fill:#207245;fill-opacity:1" />
    <path
       id="XMLID_252_"
       d="m387.497007,464.2c0,15.8 -12.8,28.6 -28.6,28.6l-248.6,0c-15.8,0 -28.6,-12.8 -28.6,-28.6l0,-8.8l-13.2,0l0,13.6c0,20.5 16.6,37 37,37l258.1,0c20.5,0 37,-16.6 37,-37l0,-268.6l-13.2,0l0,263.8l0.1,0z"
       style="fill:#207245;fill-opacity:1"
       fill="#1d409d" />
    <path
       id="XMLID_251_"
       d="m80.9,110.3c0,-15.8 12.8,-28.6 28.6,-28.6l213.2,0c-1.4,-4.4 -0.3,-9.3 3,-12.7l0.4,-0.4l-221.3,0c-20.5,0 -37,16.6 -37,37l0,227.4l13.2,0l0,-222.7l-0.1,0z"
       style="fill:#207245;fill-opacity:1"
       fill="#1d409d" />
    <path
       style="fill:#1f7245;fill-opacity:1"
       d="M 59.123047 344.42383 L 59.123047 448.52539 L 297.82422 448.52539 C 326.52422 448.52539 349.82422 425.22539 349.82422 396.52539 C 349.82422 367.82539 326.52461 344.42383 297.72461 344.42383 L 59.123047 344.42383 z M 113.23242 368.35352 C 120.86437 368.35352 126.96571 370.9184 131.53516 376.04688 C 136.1046 381.15104 138.38867 388.00521 138.38867 396.60938 C 138.38867 405.18924 136.1046 412.0434 131.53516 417.17188 C 126.96571 422.27604 120.86437 424.82812 113.23242 424.82812 C 105.57617 424.82812 99.451172 422.27604 94.857422 417.17188 C 90.287978 412.06771 88.003906 405.21354 88.003906 396.60938 C 88.003906 388.00521 90.287978 381.15104 94.857422 376.04688 C 99.451172 370.9184 105.57617 368.35352 113.23242 368.35352 z M 224.06641 368.35352 C 226.61849 368.35352 229.21788 368.58507 231.86719 369.04688 C 234.51649 369.50868 237.22721 370.20139 239.99805 371.125 L 239.99805 378.30664 C 237.20291 376.96984 234.5651 375.97461 232.08594 375.31836 C 229.60677 374.66211 227.21332 374.33398 224.9043 374.33398 C 220.89388 374.33398 217.79492 375.11046 215.60742 376.66602 C 213.44423 378.22157 212.36328 380.43468 212.36328 383.30273 C 212.36328 385.70898 213.07964 387.5319 214.51367 388.77148 C 215.97201 389.98676 218.71918 390.97114 222.75391 391.72461 L 227.20117 392.63477 C 232.69423 393.6799 236.7411 395.52843 239.3418 398.17773 C 241.9668 400.80273 243.2793 404.32639 243.2793 408.75 C 243.2793 414.02431 241.50564 418.02192 237.95703 420.74414 C 234.43273 423.46636 229.25564 424.82812 222.42578 424.82812 C 219.84939 424.82812 217.10221 424.53646 214.18555 423.95312 C 211.29319 423.36979 208.2908 422.5076 205.17969 421.36523 L 205.17969 413.78125 C 208.16927 415.45833 211.09874 416.72157 213.9668 417.57227 C 216.83485 418.42296 219.65495 418.84961 222.42578 418.84961 C 226.63064 418.84961 229.87543 418.02192 232.16016 416.36914 C 234.44488 414.71636 235.58594 412.35937 235.58594 409.29688 C 235.58594 406.62326 234.7602 404.53234 233.10742 403.02539 C 231.47895 401.51845 228.79384 400.38824 225.05078 399.63477 L 220.56641 398.75977 C 215.07335 397.66602 211.09939 395.95247 208.64453 393.61914 C 206.18967 391.28581 204.96094 388.04102 204.96094 383.88477 C 204.96094 379.07227 206.65082 375.2806 210.0293 372.50977 C 213.43207 369.73893 218.11155 368.35352 224.06641 368.35352 z M 149.91016 369.33789 L 165.03906 369.33789 C 175.58767 369.33789 183.32964 371.53819 188.26367 375.9375 C 193.1977 380.3125 195.66406 387.16667 195.66406 396.5 C 195.66406 405.88194 193.1849 412.77257 188.22656 417.17188 C 183.26823 421.57118 175.53906 423.77148 165.03906 423.77148 L 149.91016 423.77148 L 149.91016 369.33789 z M 113.23242 374.33398 C 107.8852 374.33398 103.63238 376.32639 100.47266 380.3125 C 97.33724 384.29861 95.769531 389.7309 95.769531 396.60938 C 95.769531 403.46354 97.33724 408.88303 100.47266 412.86914 C 103.63238 416.85525 107.8852 418.84961 113.23242 418.84961 C 118.57964 418.84961 122.80881 416.85525 125.91992 412.86914 C 129.05534 408.88303 130.62305 403.46354 130.62305 396.60938 C 130.62305 389.7309 129.05534 384.29861 125.91992 380.3125 C 122.80881 376.32639 118.57964 374.33398 113.23242 374.33398 z M 157.27344 375.39062 L 157.27344 417.71875 L 166.16992 417.71875 C 173.68034 417.71875 179.17274 416.01801 182.64844 412.61523 C 186.14844 409.21246 187.89844 403.84028 187.89844 396.5 C 187.89844 389.20833 186.14844 383.87261 182.64844 380.49414 C 179.17274 377.09136 173.68034 375.39062 166.16992 375.39062 L 157.27344 375.39062 z "
       id="XMLID_1062_" />
    <flowRoot
       xml:space="preserve"
       id="flowRoot887"
       style="font-style:normal;font-weight:normal;font-size:40px;line-height:1.25;font-family:sans-serif;letter-spacing:0px;word-spacing:0px;fill:#ff0000;fill-opacity:0;stroke:none;"><flowRegion
         id="flowRegion889"
         style="fill:#ff0000;fill-opacity:0;"><rect
           id="rect891"
           width="108.125"
           height="51.25"
           x="80.625"
           y="364.5"
           style="fill:#ff0000;fill-opacity:0;" /></flowRegion><flowPara
         id="flowPara893"
         style="fill:#ff0000;-inkscape-font-specification:'sans-serif, Normal';font-family:sans-serif;font-weight:normal;font-style:normal;font-stretch:normal;font-variant:normal;font-size:53.33333333px;text-anchor:start;text-align:start;writing-mode:lr;font-variant-ligatures:normal;font-variant-caps:normal;font-variant-numeric:normal;font-feature-settings:normal;fill-opacity:0;">ODS</flowPara></flowRoot>  </g>
</svg>
