<?xml version="1.0" encoding="UTF-8" standalone="no"?>
<svg
   xmlns:dc="http://purl.org/dc/elements/1.1/"
   xmlns:cc="http://creativecommons.org/ns#"
   xmlns:rdf="http://www.w3.org/1999/02/22-rdf-syntax-ns#"
   xmlns:svg="http://www.w3.org/2000/svg"
   xmlns="http://www.w3.org/2000/svg"
   xmlns:sodipodi="http://sodipodi.sourceforge.net/DTD/sodipodi-0.dtd"
   xmlns:inkscape="http://www.inkscape.org/namespaces/inkscape"
   width="512"
   height="512"
   version="1.1"
   id="svg24"
   sodipodi:docname="iconfinder-icon-sound-ogg.svg"
   inkscape:version="0.92.3 (2405546, 2018-03-11)">
  <metadata
     id="metadata30">
    <rdf:RDF>
      <cc:Work
         rdf:about="">
        <dc:format>image/svg+xml</dc:format>
        <dc:type
           rdf:resource="http://purl.org/dc/dcmitype/StillImage" />
        <dc:title></dc:title>
      </cc:Work>
    </rdf:RDF>
  </metadata>
  <defs
     id="defs28" />
  <sodipodi:namedview
     pagecolor="#ffffff"
     bordercolor="#666666"
     borderopacity="1"
     objecttolerance="10"
     gridtolerance="10"
     guidetolerance="10"
     inkscape:pageopacity="0"
     inkscape:pageshadow="2"
     inkscape:window-width="1195"
     inkscape:window-height="944"
     id="namedview26"
     showgrid="false"
     inkscape:zoom="1.1313709"
     inkscape:cx="119.6148"
     inkscape:cy="75.009023"
     inkscape:window-x="2091"
     inkscape:window-y="86"
     inkscape:window-maximized="0"
     inkscape:current-layer="g22"
     inkscape:snap-text-baseline="true" />
  <g
     id="g5">
    <title
       id="title2">background</title>
    <rect
       fill="none"
       id="canvas_background"
       height="402"
       width="582"
       y="-1"
       x="-1" />
  </g>
  <g
     id="g22">
    <title
       id="title7">Layer 1</title>
    <path
       id="XMLID_255_"
       d="m456.1,75.1l-58.5,-67.8c-1.8,-1.8 -4.9,-1.8 -6.7,0l-58.5,67.8c-2.6,2.6 -0.6,6.7 3.3,6.7l27.4,0l0,53.2l62.1,0l0,-53.2l27.4,0c4.1,0 6.1,-4.1 3.5,-6.7z"
       style="fill:#00007f;fill-opacity:1"
       fill="#1d409d" />
    <rect
       y="144.6"
       x="363.2"
       width="62.1"
       id="XMLID_254_"
       height="24.2"
       style="fill:#00007f;fill-opacity:1"
       fill="#1d409d" />
    <path
       id="XMLID_253_"
       d="m363.2,187.3c0,2.2 2,4 4.5,4l53.1,0c2.5,0 4.5,-1.8 4.5,-4l0,-8.9l-62.1,0l0,8.9z"
       fill="#1d409d"
       style="fill:#00007f;fill-opacity:1" />
    <path
       id="XMLID_252_"
       d="m387.497007,464.2c0,15.8 -12.8,28.6 -28.6,28.6l-248.6,0c-15.8,0 -28.6,-12.8 -28.6,-28.6l0,-8.8l-13.2,0l0,13.6c0,20.5 16.6,37 37,37l258.1,0c20.5,0 37,-16.6 37,-37l0,-268.6l-13.2,0l0,263.8l0.1,0z"
       style="fill:#00007f;fill-opacity:1"
       fill="#1d409d" />
    <path
       id="XMLID_251_"
       d="m80.9,110.3c0,-15.8 12.8,-28.6 28.6,-28.6l213.2,0c-1.4,-4.4 -0.3,-9.3 3,-12.7l0.4,-0.4l-221.3,0c-20.5,0 -37,16.6 -37,37l0,227.4l13.2,0l0,-222.7l-0.1,0z"
       style="fill:#00007f;fill-opacity:1"
       fill="#1d409d" />
    <path
       style="fill:#00007f;fill-opacity:1"
       d="M 59.123047 344.42383 L 59.123047 448.52539 L 297.82422 448.52539 C 326.52422 448.52539 349.82422 425.22539 349.82422 396.52539 C 349.82422 367.82539 326.52461 344.42383 297.72461 344.42383 L 59.123047 344.42383 z M 113.91797 367.88281 C 121.54991 367.88281 127.65126 370.4477 132.2207 375.57617 C 136.79015 380.68034 139.07422 387.53451 139.07422 396.13867 C 139.07422 404.71853 136.79015 411.5727 132.2207 416.70117 C 127.65126 421.80534 121.54991 424.35742 113.91797 424.35742 C 106.26172 424.35742 100.13672 421.80534 95.542969 416.70117 C 90.973524 411.59701 88.689453 404.74284 88.689453 396.13867 C 88.689453 387.53451 90.973524 380.68034 95.542969 375.57617 C 100.13672 370.4477 106.26172 367.88281 113.91797 367.88281 z M 174.62109 367.88281 C 178.1697 367.88281 181.53668 368.32031 184.7207 369.19531 C 187.92904 370.07031 190.88216 371.35916 193.58008 373.06055 L 193.58008 380.89844 C 190.85786 378.58941 187.96484 376.85221 184.90234 375.68555 C 181.83984 374.51888 178.62066 373.93555 175.24219 373.93555 C 168.58247 373.93555 163.57487 375.79492 160.2207 379.51367 C 156.89084 383.23242 155.22656 388.77409 155.22656 396.13867 C 155.22656 403.47895 156.89084 409.00781 160.2207 412.72656 C 163.57487 416.44531 168.58247 418.30469 175.24219 418.30469 C 177.84288 418.30469 180.16341 418.08594 182.20508 417.64844 C 184.24674 417.18663 186.08247 416.48112 187.71094 415.5332 L 187.71094 400.91406 L 175.67969 400.91406 L 175.67969 394.86133 L 195.00195 394.86133 L 195.00195 418.23242 C 192.1582 420.24978 189.02279 421.78103 185.5957 422.82617 C 182.16862 423.84701 178.50998 424.35742 174.62109 424.35742 C 166.11415 424.35742 159.45508 421.87826 154.64258 416.91992 C 149.85438 411.93728 147.46094 405.0102 147.46094 396.13867 C 147.46094 387.24284 149.85438 380.31576 154.64258 375.35742 C 159.45508 370.37478 166.11415 367.88281 174.62109 367.88281 z M 232.51758 367.88281 C 236.06619 367.88281 239.43316 368.32031 242.61719 369.19531 C 245.82552 370.07031 248.77865 371.35916 251.47656 373.06055 L 251.47656 380.89844 C 248.75434 378.58941 245.86133 376.85221 242.79883 375.68555 C 239.73633 374.51888 236.51519 373.93555 233.13672 373.93555 C 226.477 373.93555 221.47135 375.79492 218.11719 379.51367 C 214.78733 383.23242 213.12109 388.77409 213.12109 396.13867 C 213.12109 403.47895 214.78733 409.00781 218.11719 412.72656 C 221.47135 416.44531 226.477 418.30469 233.13672 418.30469 C 235.73741 418.30469 238.0599 418.08594 240.10156 417.64844 C 242.14323 417.18663 243.977 416.48112 245.60547 415.5332 L 245.60547 400.91406 L 233.57422 400.91406 L 233.57422 394.86133 L 252.89844 394.86133 L 252.89844 418.23242 C 250.05469 420.24978 246.91927 421.78103 243.49219 422.82617 C 240.0651 423.84701 236.40647 424.35742 232.51758 424.35742 C 224.01063 424.35742 217.35156 421.87826 212.53906 416.91992 C 207.75087 411.93728 205.35547 405.0102 205.35547 396.13867 C 205.35547 387.24284 207.75087 380.31576 212.53906 375.35742 C 217.35156 370.37478 224.01063 367.88281 232.51758 367.88281 z M 113.91797 373.86133 C 108.57075 373.86133 104.31793 375.85569 101.1582 379.8418 C 98.022787 383.82791 96.455078 389.2602 96.455078 396.13867 C 96.455078 402.99284 98.022787 408.41233 101.1582 412.39844 C 104.31793 416.38455 108.57075 418.37695 113.91797 418.37695 C 119.26519 418.37695 123.49436 416.38455 126.60547 412.39844 C 129.74089 408.41233 131.30859 402.99284 131.30859 396.13867 C 131.30859 389.2602 129.74089 383.82791 126.60547 379.8418 C 123.49436 375.85569 119.26519 373.86133 113.91797 373.86133 z "
       id="XMLID_1062_" />
    <flowRoot
       xml:space="preserve"
       id="flowRoot887"
       style="font-style:normal;font-weight:normal;font-size:40px;line-height:1.25;font-family:sans-serif;letter-spacing:0px;word-spacing:0px;fill:#ff0000;fill-opacity:0;stroke:none;"><flowRegion
         id="flowRegion889"
         style="fill:#ff0000;fill-opacity:0;"><rect
           id="rect891"
           width="108.125"
           height="51.25"
           x="80.625"
           y="364.5"
           style="fill:#ff0000;fill-opacity:0;" /></flowRegion><flowPara
         id="flowPara893"
         style="fill:#ff0000;-inkscape-font-specification:'sans-serif, Normal';font-family:sans-serif;font-weight:normal;font-style:normal;font-stretch:normal;font-variant:normal;font-size:53.33333333px;text-anchor:start;text-align:start;writing-mode:lr;font-variant-ligatures:normal;font-variant-caps:normal;font-variant-numeric:normal;font-feature-settings:normal;fill-opacity:0;">ODS</flowPara></flowRoot>    <g
       transform="translate(-16.911475,-92.29208)"
       id="g20"
       style="fill:#00007f;fill-opacity:1">
      <path
         inkscape:connector-curvature="0"
         id="path18"
         d="m 188.826,406.457 c -19.775,0 -35.863,-14.641 -35.863,-32.631 0,-17.994 16.088,-32.635 35.863,-32.635 6.98,0 13.613,1.783 19.249,5.057 V 238.134 c 0,-3.989 2.956,-7.434 7.028,-8.184 l 100.698,-13.18 c 2.77,-0.353 5.158,0.62 6.849,2.337 1.572,1.581 2.474,3.727 2.474,5.888 v 123.289 c 0,17.988 -16.092,32.629 -35.863,32.629 -19.697,0 -35.722,-14.641 -35.722,-32.629 0,-22.275 18.629,-32.244 37.091,-32.244 9.036,0 17.587,2.273 24.451,6.326 v -54.441 l -96.827,12.713 -0.136,76.219 c 0,1.877 0.125,3.686 0.256,5.623 0.194,2.846 0.416,6.07 0.325,10.129 -0.471,21.192 -11.639,33.848 -29.873,33.848 z m 0,-55.223 c -14.237,0 -25.821,10.133 -25.821,22.592 0,12.455 11.584,22.588 25.821,22.588 16.793,0 19.636,-15.053 19.835,-24.027 0.078,-3.607 -0.116,-6.463 -0.305,-9.227 -0.101,-1.482 -0.194,-2.895 -0.245,-4.32 -4.813,-4.858 -11.741,-7.606 -19.285,-7.606 z m 101.803,-25.156 c -12.479,0 -27.048,5.816 -27.048,22.205 0,12.453 11.517,22.588 25.679,22.588 14.237,0 25.82,-10.135 25.82,-22.588 V 334.9 c -5.55,-5.474 -14.721,-8.822 -24.451,-8.822 z m -72.512,-86.403 v 30.852 l 96.963,-12.732 v -30.806 z"
         style="fill:#00007f;fill-opacity:1" />
    </g>
  </g>
</svg>
