<?xml version="1.0" encoding="UTF-8" standalone="no"?>
<svg
   xmlns:dc="http://purl.org/dc/elements/1.1/"
   xmlns:cc="http://creativecommons.org/ns#"
   xmlns:rdf="http://www.w3.org/1999/02/22-rdf-syntax-ns#"
   xmlns:svg="http://www.w3.org/2000/svg"
   xmlns="http://www.w3.org/2000/svg"
   xmlns:sodipodi="http://sodipodi.sourceforge.net/DTD/sodipodi-0.dtd"
   xmlns:inkscape="http://www.inkscape.org/namespaces/inkscape"
   id="Layer_1"
   version="1.2"
   viewBox="0 0 512 512"
   xml:space="preserve"
   sodipodi:docname="iconfinder-icon-video-ogv.svg"
   inkscape:version="0.92.3 (2405546, 2018-03-11)"><metadata
     id="metadata19"><rdf:RDF><cc:Work
         rdf:about=""><dc:format>image/svg+xml</dc:format><dc:type
           rdf:resource="http://purl.org/dc/dcmitype/StillImage" /><dc:title></dc:title></cc:Work></rdf:RDF></metadata><defs
     id="defs17" /><sodipodi:namedview
     pagecolor="#ffffff"
     bordercolor="#666666"
     borderopacity="1"
     objecttolerance="10"
     gridtolerance="10"
     guidetolerance="10"
     inkscape:pageopacity="0"
     inkscape:pageshadow="2"
     inkscape:window-width="1920"
     inkscape:window-height="1008"
     id="namedview15"
     showgrid="false"
     inkscape:zoom="0.921875"
     inkscape:cx="210.63078"
     inkscape:cy="43.326632"
     inkscape:window-x="1366"
     inkscape:window-y="40"
     inkscape:window-maximized="1"
     inkscape:current-layer="XMLID_1526_" /><g
     id="XMLID_1526_"><path
       d="M456.1,75.1L397.6,7.3c-1.8-1.8-4.9-1.8-6.7,0l-58.5,67.8c-2.6,2.6-0.6,6.7,3.3,6.7h27.4   V135h62.1V81.8h27.4C456.7,81.8,458.7,77.7,456.1,75.1z"
       fill="#006A9C"
       id="XMLID_665_"
       style="fill:#209090;fill-opacity:1" /><rect
       fill="#006A9C"
       height="24.2"
       id="XMLID_664_"
       width="62.1"
       x="363.2"
       y="144.6"
       style="fill:#209090;fill-opacity:1" /><path
       d="M363.2,187.3c0,2.2,2,4,4.5,4h53.1c2.5,0,4.5-1.8,4.5-4v-8.9h-62.1V187.3z"
       fill="#006A9C"
       id="XMLID_663_"
       style="fill:#209090;fill-opacity:1" /><path
       d="M386.7,464.2c0,15.8-12.8,28.6-28.6,28.6H109.5c-15.8,0-28.6-12.8-28.6-28.6v-8.8H67.7V469   c0,20.5,16.6,37,37,37h258.1c20.5,0,37-16.6,37-37V200.4h-13.2V464.2z"
       fill="#006A9C"
       id="XMLID_662_"
       style="fill:#209090;fill-opacity:1" /><path
       d="M80.9,110.3c0-15.8,12.8-28.6,28.6-28.6h213.2c-1.4-4.4-0.3-9.3,3-12.7l0.4-0.4H104.8   c-20.5,0-37,16.6-37,37V333h13.2V110.3z"
       fill="#006A9C"
       id="XMLID_661_"
       style="fill:#209090;fill-opacity:1" /><path
       style="fill:#209090;fill-opacity:1"
       d="M 54.699219 342.19922 L 54.699219 446.30078 L 293.40039 446.30078 C 322.10039 446.30078 345.40039 423.00078 345.40039 394.30078 C 345.40039 365.60078 322.10078 342.19922 293.30078 342.19922 L 54.699219 342.19922 z M 110.39453 366.43555 C 118.02648 366.43555 124.12587 369.00043 128.69531 374.12891 C 133.26476 379.23307 135.55078 386.08724 135.55078 394.69141 C 135.55078 403.27127 133.26476 410.12543 128.69531 415.25391 C 124.12587 420.35807 118.02648 422.91016 110.39453 422.91016 C 102.73828 422.91016 96.613281 420.35807 92.019531 415.25391 C 87.450087 410.14974 85.164062 403.29557 85.164062 394.69141 C 85.164062 386.08724 87.450087 379.23307 92.019531 374.12891 C 96.613281 369.00043 102.73828 366.43555 110.39453 366.43555 z M 171.09766 366.43555 C 174.64627 366.43555 178.01128 366.87305 181.19531 367.74805 C 184.40365 368.62305 187.35677 369.91189 190.05469 371.61328 L 190.05469 379.45117 C 187.33247 377.14214 184.44141 375.40495 181.37891 374.23828 C 178.31641 373.07161 175.09527 372.48828 171.7168 372.48828 C 165.05707 372.48828 160.04948 374.34766 156.69531 378.06641 C 153.36545 381.78516 151.70117 387.32682 151.70117 394.69141 C 151.70117 402.03168 153.36545 407.56055 156.69531 411.2793 C 160.04948 414.99805 165.05707 416.85742 171.7168 416.85742 C 174.31749 416.85742 176.63802 416.63867 178.67969 416.20117 C 180.72135 415.73937 182.55707 415.03581 184.18555 414.08789 L 184.18555 399.4668 L 172.1543 399.4668 L 172.1543 393.41602 L 191.47656 393.41602 L 191.47656 416.78516 C 188.63281 418.80252 185.4974 420.33377 182.07031 421.37891 C 178.64323 422.39974 174.98655 422.91016 171.09766 422.91016 C 162.59071 422.91016 155.92969 420.43099 151.11719 415.47266 C 146.32899 410.49002 143.93555 403.56293 143.93555 394.69141 C 143.93555 385.79557 146.32899 378.86849 151.11719 373.91016 C 155.92969 368.92752 162.59071 366.43555 171.09766 366.43555 z M 198.22266 367.41992 L 205.91406 367.41992 L 223.16016 413.24805 L 240.44141 367.41992 L 248.09766 367.41992 L 227.35156 421.85352 L 219.00391 421.85352 L 198.22266 367.41992 z M 110.39453 372.41602 C 105.04731 372.41602 100.79253 374.40842 97.632812 378.39453 C 94.497396 382.38064 92.929688 387.81293 92.929688 394.69141 C 92.929688 401.54557 94.497396 406.96506 97.632812 410.95117 C 100.79253 414.93728 105.04731 416.93164 110.39453 416.93164 C 115.74175 416.93164 119.97092 414.93728 123.08203 410.95117 C 126.21745 406.96506 127.78516 401.54557 127.78516 394.69141 C 127.78516 387.81293 126.21745 382.38064 123.08203 378.39453 C 119.97092 374.40842 115.74175 372.41602 110.39453 372.41602 z "
       id="XMLID_1527_" /><path
       inkscape:connector-curvature="0"
       style="fill:#209090;fill-opacity:1;stroke-width:6.62063169"
       d="m 275.47332,275.58417 c 3.4157,0 5.46511,-2.56656 5.46511,-5.13311 0,-2.56656 -2.73255,-5.13311 -5.46511,-5.13311 -2.73255,0 -5.46509,2.56655 -5.46509,5.13311 0,2.56655 2.73254,5.13311 5.46509,5.13311 z M 298.7,101.7 H 119.71798 c -6.83137,0 -12.29648,5.13311 -12.29648,11.54949 v 167.4678 c 0,6.41639 5.46511,11.54949 12.29648,11.54949 h 178.29888 c 6.83137,0 12.29648,-5.1331 12.29648,-11.54949 V 113.24949 C 310.99648,106.83311 305.53137,101.7 298.7,101.7 Z m 2.04942,179.65893 c 0,1.28328 -0.68314,1.92491 -2.04942,1.92491 H 119.71798 c -1.36628,0 -2.04942,-0.64163 -2.04942,-1.92491 v -23.74065 h 183.08086 z m 0,-34.00688 H 117.66856 V 144.04818 h 183.08086 z m 0,-112.92847 H 117.66856 v -21.17409 c 0,-1.28327 0.68314,-1.92491 2.04942,-1.92491 h 178.29888 c 1.36628,0 2.04942,0.64164 2.04942,1.92491 v 21.17409 z m -125.6973,141.16059 c 2.73253,0 5.46509,-2.56656 5.46509,-5.13311 0,-2.56656 -2.73256,-5.13311 -5.46509,-5.13311 -2.73256,0 -5.46511,2.56655 -5.46511,5.13311 0,2.56655 2.73255,5.13311 5.46511,5.13311 z m 66.94746,-157.84319 c -3.41567,0 -5.46509,2.56655 -5.46509,5.13311 0,2.56655 2.73256,5.13311 5.46509,5.13311 2.73256,0 5.46511,-2.56656 5.46511,-5.13311 0,-2.56656 -2.04942,-5.13311 -5.46511,-5.13311 z m 0,157.84319 c 2.73256,0 5.46511,-2.56656 5.46511,-5.13311 0,-2.56656 -2.73255,-5.13311 -5.46511,-5.13311 -3.41567,0 -5.46509,2.56655 -5.46509,5.13311 0,2.56655 2.73256,5.13311 5.46509,5.13311 z m -33.47372,0 c 3.41567,0 5.46509,-2.56656 5.46509,-5.13311 0,-2.56656 -2.73255,-5.13311 -5.46509,-5.13311 -2.73255,0 -5.46511,2.56655 -5.46511,5.13311 0,2.56655 2.73256,5.13311 5.46511,5.13311 z m -66.94748,0 c 3.41569,0 5.46509,-2.56656 5.46509,-5.13311 0,-2.56656 -2.73254,-5.13311 -5.46509,-5.13311 -2.73256,0 -5.46511,2.56655 -5.46511,5.13311 0,2.56655 2.73255,5.13311 5.46511,5.13311 z m 66.94748,-157.84319 c -2.73255,0 -5.46511,2.56655 -5.46511,5.13311 0,2.56655 2.73256,5.13311 5.46511,5.13311 3.41567,0 5.46509,-2.56656 5.46509,-5.13311 0,-2.56656 -2.04942,-5.13311 -5.46509,-5.13311 z m -33.47374,0 c -2.73256,0 -5.46511,2.56655 -5.46511,5.13311 0,2.56655 2.73255,5.13311 5.46511,5.13311 2.73253,0 5.46509,-2.56656 5.46509,-5.13311 0,-2.56656 -2.04942,-5.13311 -5.46509,-5.13311 z m 13.66274,113.57009 c 0.68313,0.64164 1.36627,0.64164 2.04941,0.64164 1.36628,0 2.04942,-0.64164 3.4157,-1.28328 l 43.7208,-32.72358 c 1.36628,-0.64164 2.04941,-2.56655 2.04941,-3.84983 0,-1.28328 -0.68313,-2.56656 -2.04941,-3.84983 l -43.7208,-32.7236 c -1.36628,-1.28328 -3.4157,-1.28328 -5.46511,-0.64164 -2.0494,0.64164 -2.73254,2.56655 -2.73254,4.49147 v 65.44718 c 0,1.92492 0.68314,3.84983 2.73254,4.49147 z m 7.51452,-59.67242 30.74119,22.45737 -30.74119,22.45736 z m 79.24394,-53.89767 c -2.73255,0 -5.46509,2.56655 -5.46509,5.13311 0,2.56655 2.73254,5.13311 5.46509,5.13311 3.4157,0 5.46511,-2.56656 5.46511,-5.13311 0,-2.56656 -2.04941,-5.13311 -5.46511,-5.13311 z m -133.89494,0 c -2.73256,0 -5.46511,2.56655 -5.46511,5.13311 0,2.56655 2.73255,5.13311 5.46511,5.13311 3.41569,0 5.46509,-2.56656 5.46509,-5.13311 0,-2.56656 -2.0494,-5.13311 -5.46509,-5.13311 z"
       id="path2" /></g></svg>