<?xml version="1.0" encoding="UTF-8" standalone="no"?>
<svg
   xmlns:dc="http://purl.org/dc/elements/1.1/"
   xmlns:cc="http://creativecommons.org/ns#"
   xmlns:rdf="http://www.w3.org/1999/02/22-rdf-syntax-ns#"
   xmlns:svg="http://www.w3.org/2000/svg"
   xmlns="http://www.w3.org/2000/svg"
   xmlns:sodipodi="http://sodipodi.sourceforge.net/DTD/sodipodi-0.dtd"
   xmlns:inkscape="http://www.inkscape.org/namespaces/inkscape"
   width="512"
   height="512"
   version="1.1"
   id="svg24"
   sodipodi:docname="iconfinder-icon-adobe-pdf.svg"
   inkscape:version="0.92.3 (2405546, 2018-03-11)">
  <metadata
     id="metadata30">
    <rdf:RDF>
      <cc:Work
         rdf:about="">
        <dc:format>image/svg+xml</dc:format>
        <dc:type
           rdf:resource="http://purl.org/dc/dcmitype/StillImage" />
        <dc:title />
      </cc:Work>
    </rdf:RDF>
  </metadata>
  <defs
     id="defs28" />
  <sodipodi:namedview
     pagecolor="#ffffff"
     bordercolor="#666666"
     borderopacity="1"
     objecttolerance="10"
     gridtolerance="10"
     guidetolerance="10"
     inkscape:pageopacity="0"
     inkscape:pageshadow="2"
     inkscape:window-width="1920"
     inkscape:window-height="1008"
     id="namedview26"
     showgrid="false"
     inkscape:zoom="3.1678384"
     inkscape:cx="104.42848"
     inkscape:cy="132.37838"
     inkscape:window-x="1366"
     inkscape:window-y="40"
     inkscape:window-maximized="1"
     inkscape:current-layer="g22"
     inkscape:snap-text-baseline="true" />
  <g
     id="g5">
    <title
       id="title2">background</title>
    <rect
       fill="none"
       id="canvas_background"
       height="402"
       width="582"
       y="-1"
       x="-1" />
  </g>
  <g
     id="g22">
    <title
       id="title7">Layer 1</title>
    <path
       id="XMLID_255_"
       d="m456.1,75.1l-58.5,-67.8c-1.8,-1.8 -4.9,-1.8 -6.7,0l-58.5,67.8c-2.6,2.6 -0.6,6.7 3.3,6.7l27.4,0l0,53.2l62.1,0l0,-53.2l27.4,0c4.1,0 6.1,-4.1 3.5,-6.7z"
       style="fill:#fd4233;fill-opacity:1"
       fill="#1d409d" />
    <rect
       y="144.6"
       x="363.2"
       width="62.1"
       id="XMLID_254_"
       height="24.2"
       style="fill:#fd4233;fill-opacity:1"
       fill="#1d409d" />
    <path
       id="XMLID_253_"
       d="m363.2,187.3c0,2.2 2,4 4.5,4l53.1,0c2.5,0 4.5,-1.8 4.5,-4l0,-8.9l-62.1,0l0,8.9z"
       fill="#1d409d"
       style="fill:#fd4233;fill-opacity:1" />
    <path
       id="XMLID_252_"
       d="m387.497007,464.2c0,15.8 -12.8,28.6 -28.6,28.6l-248.6,0c-15.8,0 -28.6,-12.8 -28.6,-28.6l0,-8.8l-13.2,0l0,13.6c0,20.5 16.6,37 37,37l258.1,0c20.5,0 37,-16.6 37,-37l0,-268.6l-13.2,0l0,263.8l0.1,0z"
       style="fill:#fd4233;fill-opacity:1"
       fill="#1d409d" />
    <path
       id="XMLID_251_"
       d="m80.9,110.3c0,-15.8 12.8,-28.6 28.6,-28.6l213.2,0c-1.4,-4.4 -0.3,-9.3 3,-12.7l0.4,-0.4l-221.3,0c-20.5,0 -37,16.6 -37,37l0,227.4l13.2,0l0,-222.7l-0.1,0z"
       style="fill:#fd4233;fill-opacity:1"
       fill="#1d409d" />
    <path
       style="fill:#fd4233;fill-opacity:1"
       d="M 59.123047 344.42383 L 59.123047 448.52539 L 297.82422 448.52539 C 326.52422 448.52539 349.82422 425.22539 349.82422 396.52539 C 349.82422 367.82539 326.52461 344.42383 297.72461 344.42383 L 59.123047 344.42383 z M 88.712891 369.85156 L 105.33789 369.85156 C 111.43858 369.85156 116.04514 371.23698 119.15625 374.00781 C 122.29167 376.75434 123.85938 380.79036 123.85938 386.11328 C 123.85938 391.48481 122.29167 395.54253 119.15625 398.28906 C 116.04514 401.03559 111.43858 402.41016 105.33789 402.41016 L 96.078125 402.41016 L 96.078125 424.28516 L 88.712891 424.28516 L 88.712891 369.85156 z M 133.77539 369.85156 L 148.90625 369.85156 C 159.45486 369.85156 167.19683 372.05187 172.13086 376.45117 C 177.06489 380.82617 179.53125 387.68034 179.53125 397.01367 C 179.53125 406.39562 177.05208 413.28624 172.09375 417.68555 C 167.13542 422.08485 159.40625 424.28516 148.90625 424.28516 L 133.77539 424.28516 L 133.77539 369.85156 z M 191.23438 369.85156 L 222.51562 369.85156 L 222.51562 376.05078 L 198.59961 376.05078 L 198.59961 392.0918 L 220.18164 392.0918 L 220.18164 398.28906 L 198.59961 398.28906 L 198.59961 424.28516 L 191.23438 424.28516 L 191.23438 369.85156 z M 96.078125 375.9043 L 96.078125 396.35742 L 105.33789 396.35742 C 108.76497 396.35742 111.41558 395.46962 113.28711 393.69531 C 115.15864 391.92101 116.09375 389.39453 116.09375 386.11328 C 116.09375 382.85634 115.15864 380.34071 113.28711 378.56641 C 111.41558 376.7921 108.76497 375.9043 105.33789 375.9043 L 96.078125 375.9043 z M 141.14062 375.9043 L 141.14062 418.23242 L 150.03711 418.23242 C 157.54753 418.23242 163.03993 416.53168 166.51562 413.12891 C 170.01562 409.72613 171.76562 404.35395 171.76562 397.01367 C 171.76562 389.72201 170.01562 384.38628 166.51562 381.00781 C 163.03993 377.60503 157.54753 375.9043 150.03711 375.9043 L 141.14062 375.9043 z "
       id="XMLID_1062_" />
    <flowRoot
       xml:space="preserve"
       id="flowRoot887"
       style="font-style:normal;font-weight:normal;font-size:40px;line-height:1.25;font-family:sans-serif;letter-spacing:0px;word-spacing:0px;fill:#ff0000;fill-opacity:0;stroke:none;"><flowRegion
         id="flowRegion889"
         style="fill:#ff0000;fill-opacity:0;"><rect
           id="rect891"
           width="108.125"
           height="51.25"
           x="80.625"
           y="364.5"
           style="fill:#ff0000;fill-opacity:0;" /></flowRegion><flowPara
         id="flowPara893"
         style="fill:#ff0000;-inkscape-font-specification:'sans-serif, Normal';font-family:sans-serif;font-weight:normal;font-style:normal;font-stretch:normal;font-variant:normal;font-size:53.33333333px;text-anchor:start;text-align:start;writing-mode:lr;font-variant-ligatures:normal;font-variant-caps:normal;font-variant-numeric:normal;font-feature-settings:normal;fill-opacity:0;">ODS</flowPara></flowRoot>    <g
       transform="matrix(3.0190139,0,0,3.1498308,33.781401,-10.397522)"
       id="g24">
      <path
         inkscape:connector-curvature="0"
         id="path22"
         style="fill:#ff402f"
         d="m 95.21,80.32 c -0.07,-0.51 -0.48,-1.15 -0.92,-1.58 -1.26,-1.24 -4.03,-1.89 -8.25,-1.95 -2.86,-0.03 -6.3,0.22 -9.92,0.73 -1.62,-0.93 -3.29,-1.95 -4.6,-3.18 -3.53,-3.29 -6.47,-7.86 -8.31,-12.89 0.12,-0.47 0.22,-0.88 0.32,-1.3 0,0 1.98,-11.28 1.46,-15.1 -0.07,-0.52 -0.12,-0.67 -0.26,-1.08 l -0.17,-0.44 c -0.54,-1.25 -1.6,-2.57 -3.26,-2.5 L 60.32,41 H 60.3 c -1.86,0 -3.36,0.95 -3.76,2.36 -1.2,4.44 0.04,11.09 2.29,19.69 l -0.58,1.4 c -1.61,3.94 -3.63,7.9 -5.41,11.39 l -0.23,0.45 c -1.88,3.67 -3.58,6.79 -5.13,9.43 l -1.59,0.84 c -0.12,0.06 -2.85,1.51 -3.49,1.89 -5.43,3.25 -9.03,6.93 -9.63,9.85 -0.19,0.94 -0.05,2.13 0.92,2.68 l 1.54,0.78 c 0.67,0.33 1.38,0.5 2.1,0.5 3.87,0 8.36,-4.82 14.55,-15.62 7.14,-2.32 15.28,-4.26 22.41,-5.32 5.43,3.05 12.11,5.18 16.33,5.18 0.75,0 1.4,-0.07 1.92,-0.21 0.81,-0.22 1.49,-0.68 1.91,-1.3 0.82,-1.23 0.98,-2.93 0.76,-4.67 z M 36.49,99.33 c 0.7,-1.93 3.5,-5.75 7.63,-9.13 0.26,-0.21 0.9,-0.81 1.48,-1.37 -4.32,6.89 -7.21,9.63 -9.11,10.5 z M 60.95,43 c 1.24,0 1.95,3.13 2.01,6.07 0.06,2.94 -0.63,5 -1.48,6.53 -0.71,-2.26 -1.05,-5.82 -1.05,-8.15 0,0 -0.05,-4.45 0.52,-4.45 z m -7.3,40.14 c 0.87,-1.55 1.77,-3.19 2.69,-4.92 2.25,-4.25 3.67,-7.57 4.72,-10.3 2.1,3.82 4.72,7.07 7.79,9.67 0.39,0.32 0.8,0.65 1.22,0.98 -6.25,1.23 -11.66,2.74 -16.42,4.57 z m 39.43,-0.35 c -0.38,0.23 -1.47,0.37 -2.17,0.37 -2.26,0 -5.07,-1.03 -9,-2.72 1.51,-0.11 2.9,-0.17 4.14,-0.17 2.27,0 2.94,-0.01 5.17,0.56 2.22,0.57 2.25,1.72 1.86,1.96 z" />
    </g>
  </g>
</svg>
