<?xml version="1.0" encoding="UTF-8" standalone="no"?>
<svg
   xmlns:dc="http://purl.org/dc/elements/1.1/"
   xmlns:cc="http://creativecommons.org/ns#"
   xmlns:rdf="http://www.w3.org/1999/02/22-rdf-syntax-ns#"
   xmlns:svg="http://www.w3.org/2000/svg"
   xmlns="http://www.w3.org/2000/svg"
   xmlns:sodipodi="http://sodipodi.sourceforge.net/DTD/sodipodi-0.dtd"
   xmlns:inkscape="http://www.inkscape.org/namespaces/inkscape"
   width="512"
   height="512"
   version="1.1"
   id="svg27"
   sodipodi:docname="iconfinder-icon-powerpoint-ppt.svg"
   inkscape:version="0.92.3 (2405546, 2018-03-11)">
  <metadata
     id="metadata33">
    <rdf:RDF>
      <cc:Work
         rdf:about="">
        <dc:format>image/svg+xml</dc:format>
        <dc:type
           rdf:resource="http://purl.org/dc/dcmitype/StillImage" />
        <dc:title></dc:title>
      </cc:Work>
    </rdf:RDF>
  </metadata>
  <defs
     id="defs31" />
  <sodipodi:namedview
     pagecolor="#ffffff"
     bordercolor="#666666"
     borderopacity="1"
     objecttolerance="10"
     gridtolerance="10"
     guidetolerance="10"
     inkscape:pageopacity="0"
     inkscape:pageshadow="2"
     inkscape:window-width="1920"
     inkscape:window-height="1008"
     id="namedview29"
     showgrid="false"
     inkscape:zoom="2.6074563"
     inkscape:cx="200.04074"
     inkscape:cy="131.85643"
     inkscape:window-x="1366"
     inkscape:window-y="40"
     inkscape:window-maximized="1"
     inkscape:current-layer="g25" />
  <g
     id="g5">
    <title
       id="title2">background</title>
    <rect
       fill="none"
       id="canvas_background"
       height="402"
       width="582"
       y="-1"
       x="-1" />
  </g>
  <g
     id="g25">
    <title
       id="title7">Layer 1</title>
    <path
       style="fill:#d24625;fill-opacity:1"
       d="M 300.95312 342.75586 A 42.063477 52.118904 0 0 0 297.52344 342.95508 L 257.49219 342.95508 L 257.49219 343.23047 L 51.761719 343.23047 L 51.761719 447.33008 L 260.61719 447.33008 C 261.82084 447.33008 263.00923 447.26134 264.18945 447.15625 L 303.69727 447.15625 L 303.69727 446.87305 A 42.063477 52.118904 0 0 0 343.01758 394.875 A 42.063477 52.118904 0 0 0 300.95312 342.75586 z M 81.992188 368.54492 L 98.617188 368.54492 C 104.71788 368.54492 109.32444 369.93034 112.43555 372.70117 C 115.57096 375.4477 117.13867 379.48177 117.13867 384.80469 C 117.13867 390.17622 115.57096 394.23589 112.43555 396.98242 C 109.32444 399.72895 104.71788 401.10156 98.617188 401.10156 L 89.357422 401.10156 L 89.357422 422.97656 L 81.992188 422.97656 L 81.992188 368.54492 z M 127.05469 368.54492 L 143.67969 368.54492 C 149.78038 368.54492 154.38694 369.93034 157.49805 372.70117 C 160.63346 375.4477 162.20117 379.48177 162.20117 384.80469 C 162.20117 390.17622 160.63346 394.23589 157.49805 396.98242 C 154.38694 399.72895 149.78038 401.10156 143.67969 401.10156 L 134.41992 401.10156 L 134.41992 422.97656 L 127.05469 422.97656 L 127.05469 368.54492 z M 164.57031 368.54492 L 210.61719 368.54492 L 210.61719 374.74219 L 191.29492 374.74219 L 191.29492 422.97656 L 183.89258 422.97656 L 183.89258 374.74219 L 164.57031 374.74219 L 164.57031 368.54492 z M 89.357422 374.5957 L 89.357422 395.04883 L 98.617188 395.04883 C 102.04427 395.04883 104.69293 394.16298 106.56445 392.38867 C 108.43598 390.61437 109.37305 388.08594 109.37305 384.80469 C 109.37305 381.54774 108.43598 379.03212 106.56445 377.25781 C 104.69293 375.48351 102.04427 374.5957 98.617188 374.5957 L 89.357422 374.5957 z M 134.41992 374.5957 L 134.41992 395.04883 L 143.67969 395.04883 C 147.10677 395.04883 149.75543 394.16298 151.62695 392.38867 C 153.49848 390.61437 154.43555 388.08594 154.43555 384.80469 C 154.43555 381.54774 153.49848 379.03212 151.62695 377.25781 C 149.75543 375.48351 147.10677 374.5957 143.67969 374.5957 L 134.41992 374.5957 z M 212.85156 422.6875 L 212.85156 422.97656 L 212.6582 422.97656 L 212.85156 422.6875 z "
       id="svg_2" />
    <rect
       fill="#d24625"
       y="158.6"
       x="121.70845"
       width="227.1"
       id="XMLID_597_"
       height="19.1" />
    <rect
       fill="#d24625"
       y="189.6"
       x="121.70845"
       width="227.1"
       id="XMLID_596_"
       height="19.1" />
    <rect
       fill="#d24625"
       y="220.7"
       x="120.3"
       width="227.1"
       id="XMLID_595_"
       height="19.1" />
    <rect
       fill="#d24625"
       y="251.7"
       x="120.3"
       width="227.1"
       id="XMLID_594_"
       height="19.1" />
    <rect
       fill="#d24625"
       y="282.7"
       x="120.3"
       width="176.5"
       id="XMLID_593_"
       height="19.1" />
    <path
       fill="#d24625"
       id="XMLID_592_"
       d="m456.1,75.1l-58.5,-67.8c-1.8,-1.8 -4.9,-1.8 -6.7,0l-58.5,67.8c-2.6,2.6 -0.6,6.7 3.3,6.7l27.4,0l0,53.2l62.1,0l0,-53.2l27.4,0c4.1,0 6.1,-4.1 3.5,-6.7z" />
    <rect
       fill="#d24625"
       y="144.6"
       x="363.2"
       width="62.1"
       id="XMLID_591_"
       height="24.2" />
    <path
       fill="#d24625"
       id="XMLID_590_"
       d="m363.2,187.3c0,2.2 2,4 4.5,4l53.1,0c2.5,0 4.5,-1.8 4.5,-4l0,-8.9l-62.1,0l0,8.9z" />
    <path
       fill="#d24625"
       id="XMLID_589_"
       d="m386.7,464.2c0,15.8 -12.8,28.6 -28.6,28.6l-248.6,0c-15.8,0 -28.6,-12.8 -28.6,-28.6l0,-8.8l-13.2,0l0,13.6c0,20.5 16.6,37 37,37l258.1,0c20.5,0 37,-16.6 37,-37l0,-268.6l-13.2,0l0,263.8l0.1,0z" />
    <path
       fill="#d24625"
       id="XMLID_588_"
       d="m80.9,110.3c0,-15.8 12.8,-28.6 28.6,-28.6l213.2,0c-1.4,-4.4 -0.3,-9.3 3,-12.7l0.4,-0.4l-221.3,0c-20.5,0 -37,16.6 -37,37l0,227.4l13.2,0l0,-222.7l-0.1,0z" />
  </g>
</svg>
