<?xml version="1.0" encoding="UTF-8" standalone="no"?>
<svg
   xmlns:dc="http://purl.org/dc/elements/1.1/"
   xmlns:cc="http://creativecommons.org/ns#"
   xmlns:rdf="http://www.w3.org/1999/02/22-rdf-syntax-ns#"
   xmlns:svg="http://www.w3.org/2000/svg"
   xmlns="http://www.w3.org/2000/svg"
   xmlns:sodipodi="http://sodipodi.sourceforge.net/DTD/sodipodi-0.dtd"
   xmlns:inkscape="http://www.inkscape.org/namespaces/inkscape"
   width="512"
   height="512"
   version="1.1"
   id="svg24"
   sodipodi:docname="iconfinder-icon-word-rtf.svg"
   inkscape:version="0.92.3 (2405546, 2018-03-11)">
  <metadata
     id="metadata30">
    <rdf:RDF>
      <cc:Work
         rdf:about="">
        <dc:format>image/svg+xml</dc:format>
        <dc:type
           rdf:resource="http://purl.org/dc/dcmitype/StillImage" />
        <dc:title></dc:title>
      </cc:Work>
    </rdf:RDF>
  </metadata>
  <defs
     id="defs28" />
  <sodipodi:namedview
     pagecolor="#ffffff"
     bordercolor="#666666"
     borderopacity="1"
     objecttolerance="10"
     gridtolerance="10"
     guidetolerance="10"
     inkscape:pageopacity="0"
     inkscape:pageshadow="2"
     inkscape:window-width="791"
     inkscape:window-height="646"
     id="namedview26"
     showgrid="false"
     inkscape:zoom="0.23046875"
     inkscape:cx="-50.468745"
     inkscape:cy="399.14196"
     inkscape:window-x="2331"
     inkscape:window-y="135"
     inkscape:window-maximized="0"
     inkscape:current-layer="g22" />
  <g
     id="g5">
    <title
       id="title2">background</title>
    <rect
       fill="none"
       id="canvas_background"
       height="402"
       width="582"
       y="-1"
       x="-1" />
  </g>
  <g
     id="g22">
    <title
       id="title7">Layer 1</title>
    <rect
       y="158.6"
       x="120.3"
       width="227.1"
       id="XMLID_260_"
       height="19.1"
       fill="#1d409d"
       style="fill:#2a5699;fill-opacity:1" />
    <rect
       y="189.6"
       x="120.3"
       width="227.1"
       id="XMLID_259_"
       height="19.1"
       fill="#1d409d"
       style="fill:#2a5699;fill-opacity:1" />
    <rect
       y="220.7"
       x="120.3"
       width="227.1"
       id="XMLID_258_"
       height="19.1"
       fill="#1d409d"
       style="fill:#2a5699;fill-opacity:1" />
    <rect
       y="251.7"
       x="120.3"
       width="227.1"
       id="XMLID_257_"
       height="19.1"
       fill="#1d409d"
       style="fill:#2a5699;fill-opacity:1" />
    <rect
       y="282.7"
       x="120.3"
       width="176.5"
       id="XMLID_256_"
       height="19.1"
       fill="#1d409d"
       style="fill:#2a5699;fill-opacity:1" />
    <path
       id="XMLID_255_"
       fill="#1d409d"
       d="m456.1,75.1l-58.5,-67.8c-1.8,-1.8 -4.9,-1.8 -6.7,0l-58.5,67.8c-2.6,2.6 -0.6,6.7 3.3,6.7l27.4,0l0,53.2l62.1,0l0,-53.2l27.4,0c4.1,0 6.1,-4.1 3.5,-6.7z"
       style="fill:#2a5699;fill-opacity:1" />
    <rect
       y="144.6"
       x="363.2"
       width="62.1"
       id="XMLID_254_"
       height="24.2"
       fill="#1d409d"
       style="fill:#2a5699;fill-opacity:1" />
    <path
       id="XMLID_253_"
       fill="#1d409d"
       d="m363.2,187.3c0,2.2 2,4 4.5,4l53.1,0c2.5,0 4.5,-1.8 4.5,-4l0,-8.9l-62.1,0l0,8.9z" />
    <path
       id="XMLID_252_"
       fill="#1d409d"
       d="m387.497007,464.2c0,15.8 -12.8,28.6 -28.6,28.6l-248.6,0c-15.8,0 -28.6,-12.8 -28.6,-28.6l0,-8.8l-13.2,0l0,13.6c0,20.5 16.6,37 37,37l258.1,0c20.5,0 37,-16.6 37,-37l0,-268.6l-13.2,0l0,263.8l0.1,0z"
       style="fill:#2a5699;fill-opacity:1" />
    <path
       id="XMLID_251_"
       fill="#1d409d"
       d="m80.9,110.3c0,-15.8 12.8,-28.6 28.6,-28.6l213.2,0c-1.4,-4.4 -0.3,-9.3 3,-12.7l0.4,-0.4l-221.3,0c-20.5,0 -37,16.6 -37,37l0,227.4l13.2,0l0,-222.7l-0.1,0z"
       style="fill:#2a5699;fill-opacity:1" />
    <path
       style="fill:#2a5699;fill-opacity:1"
       d="M 59.666016 347.13477 L 59.666016 451.23633 L 298.36719 451.23633 C 327.06719 451.23633 350.36719 427.93633 350.36719 399.23633 C 350.36719 370.53633 327.06758 347.13477 298.26758 347.13477 L 59.666016 347.13477 z M 93.894531 371.84375 L 110.51953 371.84375 C 116.74175 371.84375 121.38281 373.14345 124.44531 375.74414 C 127.50781 378.34483 129.03906 382.26953 129.03906 387.51953 C 129.03906 390.94661 128.23698 393.79036 126.63281 396.05078 C 125.05295 398.3112 122.74523 399.87891 119.70703 400.75391 C 121.28689 401.28863 122.81814 402.43164 124.30078 404.18164 C 125.80773 405.93164 127.31337 408.33789 128.82031 411.40039 L 136.29492 426.27539 L 128.38281 426.27539 L 121.41992 412.3125 C 119.62131 408.66667 117.87131 406.24761 116.16992 405.05664 C 114.49284 403.86567 112.19596 403.26953 109.2793 403.26953 L 101.25781 403.26953 L 101.25781 426.27539 L 93.894531 426.27539 L 93.894531 371.84375 z M 132.86719 371.84375 L 178.91406 371.84375 L 178.91406 378.04102 L 159.5918 378.04102 L 159.5918 426.27539 L 152.19141 426.27539 L 152.19141 378.04102 L 132.86719 378.04102 L 132.86719 371.84375 z M 186.06055 371.84375 L 217.3418 371.84375 L 217.3418 378.04102 L 193.42578 378.04102 L 193.42578 394.08203 L 215.00781 394.08203 L 215.00781 400.28125 L 193.42578 400.28125 L 193.42578 426.27539 L 186.06055 426.27539 L 186.06055 371.84375 z M 101.25781 377.89453 L 101.25781 397.21875 L 110.51953 397.21875 C 114.06814 397.21875 116.74045 396.40386 118.53906 394.77539 C 120.36198 393.12261 121.27344 390.70356 121.27344 387.51953 C 121.27344 384.3355 120.36198 381.94206 118.53906 380.33789 C 116.74045 378.70942 114.06814 377.89453 110.51953 377.89453 L 101.25781 377.89453 z "
       id="XMLID_1062_" />
  </g>
</svg>
