<?xml version="1.0" encoding="UTF-8" standalone="no"?>
<svg
   xmlns:dc="http://purl.org/dc/elements/1.1/"
   xmlns:cc="http://creativecommons.org/ns#"
   xmlns:rdf="http://www.w3.org/1999/02/22-rdf-syntax-ns#"
   xmlns:svg="http://www.w3.org/2000/svg"
   xmlns="http://www.w3.org/2000/svg"
   xmlns:xlink="http://www.w3.org/1999/xlink"
   xmlns:sodipodi="http://sodipodi.sourceforge.net/DTD/sodipodi-0.dtd"
   xmlns:inkscape="http://www.inkscape.org/namespaces/inkscape"
   width="512"
   height="512"
   version="1.1"
   id="svg24"
   sodipodi:docname="iconfinder-icon-unknow.svg"
   inkscape:version="0.92.3 (2405546, 2018-03-11)">
  <metadata
     id="metadata30">
    <rdf:RDF>
      <cc:Work
         rdf:about="">
        <dc:format>image/svg+xml</dc:format>
        <dc:type
           rdf:resource="http://purl.org/dc/dcmitype/StillImage" />
        <dc:title></dc:title>
      </cc:Work>
    </rdf:RDF>
  </metadata>
  <defs
     id="defs28">
    <linearGradient
       gradientTransform="matrix(0.0341,0.9994,-0.9991,0.0433,202.5947,576.7023)"
       gradientUnits="userSpaceOnUse"
       id="SVGID_6_"
       x1="-574.47852"
       x2="-559.6225"
       y1="165.3053"
       y2="165.3053"
       spreadMethod="pad">
      <stop
         offset="0"
         style="stop-color:#478DEC"
         id="stop38" />
      <stop
         offset="1"
         style="stop-color:#205DAF"
         id="stop40" />
    </linearGradient>
    <linearGradient
       inkscape:collect="always"
       xlink:href="#SVGID_6_"
       id="linearGradient3628"
       x1="331.22772"
       y1="70.474998"
       x2="457.26633"
       y2="70.474998"
       gradientUnits="userSpaceOnUse" />
    <linearGradient
       inkscape:collect="always"
       xlink:href="#SVGID_6_"
       id="linearGradient3636"
       x1="67.800003"
       y1="200.8"
       x2="326.10001"
       y2="200.8"
       gradientUnits="userSpaceOnUse" />
    <linearGradient
       inkscape:collect="always"
       xlink:href="#SVGID_6_"
       id="linearGradient3638"
       x1="59.123047"
       y1="396.47461"
       x2="349.82422"
       y2="396.47461"
       gradientUnits="userSpaceOnUse" />
    <linearGradient
       inkscape:collect="always"
       xlink:href="#SVGID_6_"
       id="linearGradient3640"
       x1="68.497009"
       y1="353.20001"
       x2="400.59702"
       y2="353.20001"
       gradientUnits="userSpaceOnUse" />
    <linearGradient
       inkscape:collect="always"
       xlink:href="#SVGID_6_"
       id="linearGradient3642"
       x1="363.20001"
       y1="184.85001"
       x2="425.29999"
       y2="184.85001"
       gradientUnits="userSpaceOnUse" />
    <linearGradient
       inkscape:collect="always"
       xlink:href="#SVGID_6_"
       id="linearGradient3644"
       x1="363.20001"
       y1="156.70001"
       x2="425.30002"
       y2="156.70001"
       gradientUnits="userSpaceOnUse" />
  </defs>
  <sodipodi:namedview
     pagecolor="#ffffff"
     bordercolor="#666666"
     borderopacity="1"
     objecttolerance="10"
     gridtolerance="10"
     guidetolerance="10"
     inkscape:pageopacity="0"
     inkscape:pageshadow="2"
     inkscape:window-width="1195"
     inkscape:window-height="944"
     id="namedview26"
     showgrid="false"
     inkscape:zoom="1.1313709"
     inkscape:cx="151.24737"
     inkscape:cy="176.9315"
     inkscape:window-x="1402"
     inkscape:window-y="68"
     inkscape:window-maximized="0"
     inkscape:current-layer="g22"
     inkscape:snap-text-baseline="true" />
  <g
     id="g5">
    <title
       id="title2">background</title>
    <rect
       fill="none"
       id="canvas_background"
       height="402"
       width="582"
       y="-1"
       x="-1" />
  </g>
  <g
     id="g22">
    <title
       id="title7">Layer 1</title>
    <path
       id="XMLID_255_"
       d="m456.1,75.1l-58.5,-67.8c-1.8,-1.8 -4.9,-1.8 -6.7,0l-58.5,67.8c-2.6,2.6 -0.6,6.7 3.3,6.7l27.4,0l0,53.2l62.1,0l0,-53.2l27.4,0c4.1,0 6.1,-4.1 3.5,-6.7z"
       style="fill:url(#linearGradient3628);fill-opacity:1.0"
       fill="#1d409d" />
    <rect
       y="144.6"
       x="363.2"
       width="62.1"
       id="XMLID_254_"
       height="24.2"
       style="fill:url(#linearGradient3644);fill-opacity:1.0"
       fill="#1d409d" />
    <path
       id="XMLID_253_"
       d="m363.2,187.3c0,2.2 2,4 4.5,4l53.1,0c2.5,0 4.5,-1.8 4.5,-4l0,-8.9l-62.1,0l0,8.9z"
       fill="#1d409d"
       style="fill:url(#linearGradient3642);fill-opacity:1.0" />
    <path
       id="XMLID_252_"
       d="m387.497007,464.2c0,15.8 -12.8,28.6 -28.6,28.6l-248.6,0c-15.8,0 -28.6,-12.8 -28.6,-28.6l0,-8.8l-13.2,0l0,13.6c0,20.5 16.6,37 37,37l258.1,0c20.5,0 37,-16.6 37,-37l0,-268.6l-13.2,0l0,263.8l0.1,0z"
       style="fill:url(#linearGradient3640);fill-opacity:1.0"
       fill="#1d409d" />
    <path
       id="XMLID_251_"
       d="m80.9,110.3c0,-15.8 12.8,-28.6 28.6,-28.6l213.2,0c-1.4,-4.4 -0.3,-9.3 3,-12.7l0.4,-0.4l-221.3,0c-20.5,0 -37,16.6 -37,37l0,227.4l13.2,0l0,-222.7l-0.1,0z"
       style="fill:url(#linearGradient3636);fill-opacity:1.0"
       fill="#1d409d" />
    <path
       style="fill:url(#linearGradient3638);fill-opacity:1.0"
       d="M 59.123047 344.42383 L 59.123047 448.52539 L 297.82422 448.52539 C 326.52422 448.52539 349.82422 425.22539 349.82422 396.52539 C 349.82422 367.82539 326.52461 344.42383 297.72461 344.42383 L 59.123047 344.42383 z M 121.20703 367.9043 C 122.90581 367.9043 124.52714 368.0245 126.08008 368.25 L 116.31836 368.25 C 117.87682 368.02448 119.50273 367.9043 121.20703 367.9043 z "
       id="XMLID_1062_" />
    <flowRoot
       xml:space="preserve"
       id="flowRoot887"
       style="font-style:normal;font-weight:normal;font-size:40px;line-height:1.25;font-family:sans-serif;letter-spacing:0px;word-spacing:0px;fill:#ff0000;fill-opacity:0;stroke:none;"><flowRegion
         id="flowRegion889"
         style="fill:#ff0000;fill-opacity:0;"><rect
           id="rect891"
           width="108.125"
           height="51.25"
           x="80.625"
           y="364.5"
           style="fill:#ff0000;fill-opacity:0;" /></flowRegion><flowPara
         id="flowPara893"
         style="fill:#ff0000;-inkscape-font-specification:'sans-serif, Normal';font-family:sans-serif;font-weight:normal;font-style:normal;font-stretch:normal;font-variant:normal;font-size:53.33333333px;text-anchor:start;text-align:start;writing-mode:lr;font-variant-ligatures:normal;font-variant-caps:normal;font-variant-numeric:normal;font-feature-settings:normal;fill-opacity:0;">ODS</flowPara></flowRoot>    <g
       transform="matrix(11.513653,0,0,11.313015,26.495144,13.52272)"
       id="Group_23">
      <linearGradient
         gradientTransform="matrix(0.0341,0.9994,-0.9991,0.0433,202.5947,576.7023)"
         gradientUnits="userSpaceOnUse"
         id="linearGradient1059"
         x1="-574.47852"
         x2="-559.6225"
         y1="165.3053"
         y2="165.3053">
        <stop
           offset="0"
           style="stop-color:#478DEC"
           id="stop1055" />
        <stop
           offset="1"
           style="stop-color:#205DAF"
           id="stop1057" />
      </linearGradient>
      <path
         d="m 11.4,13.628 c 0,-0.836 0.269,-1.683 0.807,-2.543 0.535,-0.856 1.32,-1.567 2.348,-2.134 1.029,-0.561 2.23,-0.844 3.604,-0.844 1.275,0 2.401,0.236 3.378,0.707 0.976,0.472 1.732,1.11 2.262,1.921 0.534,0.811 0.8,1.692 0.8,2.645 0,0.747 -0.153,1.402 -0.455,1.967 -0.303,0.563 -0.666,1.048 -1.084,1.459 -0.416,0.408 -1.069,1.097 -2.151,2.066 -0.301,0.274 -0.54,0.514 -0.72,0.722 -0.18,0.205 -0.314,0.394 -0.402,0.566 -0.088,0.173 -0.157,0.346 -0.205,0.515 -0.047,0.173 -0.12,0.473 -0.219,0.904 -0.165,0.917 -0.69,1.376 -1.57,1.376 -0.456,0 -0.842,-0.151 -1.154,-0.449 -0.313,-0.299 -0.468,-0.746 -0.468,-1.336 0,-0.74 0.113,-1.38 0.341,-1.921 0.231,-0.541 0.534,-1.016 0.913,-1.427 0.379,-0.409 0.888,-0.894 1.529,-1.459 0.563,-0.493 0.972,-0.865 1.223,-1.116 0.251,-0.252 0.362,-0.531 0.536,-0.837 0.171,-0.311 0.259,-0.646 0.259,-1.005 0,-0.705 -0.262,-1.301 -0.787,-1.785 -0.524,-0.483 -1.2,-0.724 -2.026,-0.724 -0.969,0 -1.682,0.243 -2.139,0.732 -0.458,0.488 -0.845,1.208 -1.162,2.158 -0.299,0.996 -0.866,1.495 -1.704,1.495 -0.49,0 -0.906,-0.175 -1.245,-0.522 C 11.57,14.41 11.4,14.034 11.4,13.628 Z"
         style="fill:url(#SVGID_6_);marker-start:none;marker-end:none;fill-opacity:1.0"
         id="path43"
         inkscape:connector-curvature="0" />
      <path
         d="m 17.999,23.945 c 1.093,0 1.98,0.887 1.98,1.98 0,1.093 -0.887,1.98 -1.98,1.98 -1.093,0 -1.98,-0.887 -1.98,-1.98 0,-1.093 0.887,-1.98 1.98,-1.98 z"
         style="fill:#205daf;marker-start:none;marker-end:none"
         id="path45"
         inkscape:connector-curvature="0" />
    </g>
  </g>
</svg>
