<?xml version="1.0" encoding="UTF-8" standalone="no"?>
<svg
   xmlns:dc="http://purl.org/dc/elements/1.1/"
   xmlns:cc="http://creativecommons.org/ns#"
   xmlns:rdf="http://www.w3.org/1999/02/22-rdf-syntax-ns#"
   xmlns:svg="http://www.w3.org/2000/svg"
   xmlns="http://www.w3.org/2000/svg"
   xmlns:sodipodi="http://sodipodi.sourceforge.net/DTD/sodipodi-0.dtd"
   xmlns:inkscape="http://www.inkscape.org/namespaces/inkscape"
   width="512"
   height="512"
   version="1.1"
   id="svg24"
   sodipodi:docname="iconfinder-icon-sound-wav.svg"
   inkscape:version="0.92.3 (2405546, 2018-03-11)">
  <metadata
     id="metadata30">
    <rdf:RDF>
      <cc:Work
         rdf:about="">
        <dc:format>image/svg+xml</dc:format>
        <dc:type
           rdf:resource="http://purl.org/dc/dcmitype/StillImage" />
        <dc:title></dc:title>
      </cc:Work>
    </rdf:RDF>
  </metadata>
  <defs
     id="defs28" />
  <sodipodi:namedview
     pagecolor="#ffffff"
     bordercolor="#666666"
     borderopacity="1"
     objecttolerance="10"
     gridtolerance="10"
     guidetolerance="10"
     inkscape:pageopacity="0"
     inkscape:pageshadow="2"
     inkscape:window-width="1195"
     inkscape:window-height="944"
     id="namedview26"
     showgrid="false"
     inkscape:zoom="0.56568545"
     inkscape:cx="-151.78928"
     inkscape:cy="204.66902"
     inkscape:window-x="2130"
     inkscape:window-y="88"
     inkscape:window-maximized="0"
     inkscape:current-layer="g22"
     inkscape:snap-text-baseline="true" />
  <g
     id="g5">
    <title
       id="title2">background</title>
    <rect
       fill="none"
       id="canvas_background"
       height="402"
       width="582"
       y="-1"
       x="-1" />
  </g>
  <g
     id="g22">
    <title
       id="title7">Layer 1</title>
    <path
       id="XMLID_255_"
       d="m456.1,75.1l-58.5,-67.8c-1.8,-1.8 -4.9,-1.8 -6.7,0l-58.5,67.8c-2.6,2.6 -0.6,6.7 3.3,6.7l27.4,0l0,53.2l62.1,0l0,-53.2l27.4,0c4.1,0 6.1,-4.1 3.5,-6.7z"
       style="fill:#00007f;fill-opacity:1"
       fill="#1d409d" />
    <rect
       y="144.6"
       x="363.2"
       width="62.1"
       id="XMLID_254_"
       height="24.2"
       style="fill:#00007f;fill-opacity:1"
       fill="#1d409d" />
    <path
       id="XMLID_253_"
       d="m363.2,187.3c0,2.2 2,4 4.5,4l53.1,0c2.5,0 4.5,-1.8 4.5,-4l0,-8.9l-62.1,0l0,8.9z"
       fill="#1d409d"
       style="fill:#00007f;fill-opacity:1" />
    <path
       id="XMLID_252_"
       d="m387.497007,464.2c0,15.8 -12.8,28.6 -28.6,28.6l-248.6,0c-15.8,0 -28.6,-12.8 -28.6,-28.6l0,-8.8l-13.2,0l0,13.6c0,20.5 16.6,37 37,37l258.1,0c20.5,0 37,-16.6 37,-37l0,-268.6l-13.2,0l0,263.8l0.1,0z"
       style="fill:#00007f;fill-opacity:1"
       fill="#1d409d" />
    <path
       id="XMLID_251_"
       d="m80.9,110.3c0,-15.8 12.8,-28.6 28.6,-28.6l213.2,0c-1.4,-4.4 -0.3,-9.3 3,-12.7l0.4,-0.4l-221.3,0c-20.5,0 -37,16.6 -37,37l0,227.4l13.2,0l0,-222.7l-0.1,0z"
       style="fill:#00007f;fill-opacity:1"
       fill="#1d409d" />
    <path
       style="fill:#00007f;fill-opacity:1"
       d="M 59.123047 344.42383 L 59.123047 448.52539 L 297.82422 448.52539 C 326.52422 448.52539 349.82422 425.22539 349.82422 396.52539 C 349.82422 367.82539 326.52461 344.42383 297.72461 344.42383 L 59.123047 344.42383 z M 88.675781 370.03125 L 96.113281 370.03125 L 107.5625 416.04102 L 118.97266 370.03125 L 127.25 370.03125 L 138.69727 416.04102 L 150.10938 370.03125 L 157.58203 370.03125 L 143.91016 424.46289 L 134.65039 424.46289 L 123.16602 377.21289 L 111.57227 424.46289 L 102.3125 424.46289 L 88.675781 370.03125 z M 177.26953 370.03125 L 185.61914 370.03125 L 206.36328 424.46289 L 198.70703 424.46289 L 193.75 410.5 L 169.21289 410.5 L 164.25391 424.46289 L 156.48828 424.46289 L 177.26953 370.03125 z M 202.71875 370.03125 L 210.41016 370.03125 L 227.65625 415.85938 L 244.9375 370.03125 L 252.59375 370.03125 L 231.84766 424.46289 L 223.5 424.46289 L 202.71875 370.03125 z M 181.42578 377.28711 L 171.4375 404.375 L 191.45312 404.375 L 181.42578 377.28711 z "
       id="XMLID_1062_" />
    <flowRoot
       xml:space="preserve"
       id="flowRoot887"
       style="font-style:normal;font-weight:normal;font-size:40px;line-height:1.25;font-family:sans-serif;letter-spacing:0px;word-spacing:0px;fill:#ff0000;fill-opacity:0;stroke:none;"><flowRegion
         id="flowRegion889"
         style="fill:#ff0000;fill-opacity:0;"><rect
           id="rect891"
           width="108.125"
           height="51.25"
           x="80.625"
           y="364.5"
           style="fill:#ff0000;fill-opacity:0;" /></flowRegion><flowPara
         id="flowPara893"
         style="fill:#ff0000;-inkscape-font-specification:'sans-serif, Normal';font-family:sans-serif;font-weight:normal;font-style:normal;font-stretch:normal;font-variant:normal;font-size:53.33333333px;text-anchor:start;text-align:start;writing-mode:lr;font-variant-ligatures:normal;font-variant-caps:normal;font-variant-numeric:normal;font-feature-settings:normal;fill-opacity:0;">ODS</flowPara></flowRoot>    <g
       transform="translate(-16.911475,-92.29208)"
       id="g20"
       style="fill:#00007f;fill-opacity:1">
      <path
         inkscape:connector-curvature="0"
         id="path18"
         d="m 188.826,406.457 c -19.775,0 -35.863,-14.641 -35.863,-32.631 0,-17.994 16.088,-32.635 35.863,-32.635 6.98,0 13.613,1.783 19.249,5.057 V 238.134 c 0,-3.989 2.956,-7.434 7.028,-8.184 l 100.698,-13.18 c 2.77,-0.353 5.158,0.62 6.849,2.337 1.572,1.581 2.474,3.727 2.474,5.888 v 123.289 c 0,17.988 -16.092,32.629 -35.863,32.629 -19.697,0 -35.722,-14.641 -35.722,-32.629 0,-22.275 18.629,-32.244 37.091,-32.244 9.036,0 17.587,2.273 24.451,6.326 v -54.441 l -96.827,12.713 -0.136,76.219 c 0,1.877 0.125,3.686 0.256,5.623 0.194,2.846 0.416,6.07 0.325,10.129 -0.471,21.192 -11.639,33.848 -29.873,33.848 z m 0,-55.223 c -14.237,0 -25.821,10.133 -25.821,22.592 0,12.455 11.584,22.588 25.821,22.588 16.793,0 19.636,-15.053 19.835,-24.027 0.078,-3.607 -0.116,-6.463 -0.305,-9.227 -0.101,-1.482 -0.194,-2.895 -0.245,-4.32 -4.813,-4.858 -11.741,-7.606 -19.285,-7.606 z m 101.803,-25.156 c -12.479,0 -27.048,5.816 -27.048,22.205 0,12.453 11.517,22.588 25.679,22.588 14.237,0 25.82,-10.135 25.82,-22.588 V 334.9 c -5.55,-5.474 -14.721,-8.822 -24.451,-8.822 z m -72.512,-86.403 v 30.852 l 96.963,-12.732 v -30.806 z"
         style="fill:#00007f;fill-opacity:1" />
    </g>
  </g>
</svg>
