<?xml version="1.0" encoding="UTF-8" standalone="no"?>
<svg
   xmlns:dc="http://purl.org/dc/elements/1.1/"
   xmlns:cc="http://creativecommons.org/ns#"
   xmlns:rdf="http://www.w3.org/1999/02/22-rdf-syntax-ns#"
   xmlns:svg="http://www.w3.org/2000/svg"
   xmlns="http://www.w3.org/2000/svg"
   xmlns:sodipodi="http://sodipodi.sourceforge.net/DTD/sodipodi-0.dtd"
   xmlns:inkscape="http://www.inkscape.org/namespaces/inkscape"
   id="Layer_1"
   version="1.2"
   viewBox="0 0 512 512"
   xml:space="preserve"
   sodipodi:docname="iconfinder-icon-excel-xls.svg"
   inkscape:version="0.92.3 (2405546, 2018-03-11)"><metadata
     id="metadata19"><rdf:RDF><cc:Work
         rdf:about=""><dc:format>image/svg+xml</dc:format><dc:type
           rdf:resource="http://purl.org/dc/dcmitype/StillImage" /><dc:title></dc:title></cc:Work></rdf:RDF></metadata><defs
     id="defs17" /><sodipodi:namedview
     pagecolor="#ffffff"
     bordercolor="#666666"
     borderopacity="1"
     objecttolerance="10"
     gridtolerance="10"
     guidetolerance="10"
     inkscape:pageopacity="0"
     inkscape:pageshadow="2"
     inkscape:window-width="1148"
     inkscape:window-height="869"
     id="namedview15"
     showgrid="false"
     inkscape:zoom="1.84375"
     inkscape:cx="202.4159"
     inkscape:cy="115.89605"
     inkscape:window-x="2094"
     inkscape:window-y="140"
     inkscape:window-maximized="0"
     inkscape:current-layer="XMLID_1163_" /><g
     id="XMLID_1163_"><rect
       fill="#8ABE4F"
       height="19.1"
       id="XMLID_349_"
       width="227.1"
       x="120.3"
       y="158.6"
       style="fill:#207245;fill-opacity:1" /><rect
       fill="#8ABE4F"
       height="19.1"
       id="XMLID_348_"
       width="227.1"
       x="120.3"
       y="189.6"
       style="fill:#207245;fill-opacity:1" /><rect
       fill="#8ABE4F"
       height="19.1"
       id="XMLID_347_"
       width="227.1"
       x="120.3"
       y="220.7"
       style="fill:#207245;fill-opacity:1" /><rect
       fill="#8ABE4F"
       height="19.1"
       id="XMLID_346_"
       width="227.1"
       x="120.3"
       y="251.7"
       style="fill:#207245;fill-opacity:1" /><rect
       fill="#8ABE4F"
       height="19.1"
       id="XMLID_345_"
       width="176.5"
       x="120.3"
       y="282.7"
       style="fill:#207245;fill-opacity:1" /><path
       d="M456.1,75.1L397.6,7.3c-1.8-1.8-4.9-1.8-6.7,0l-58.5,67.8c-2.6,2.6-0.6,6.7,3.3,6.7h27.4   V135h62.1V81.8h27.4C456.7,81.8,458.7,77.7,456.1,75.1z"
       id="XMLID_344_"
       fill="#8ABE4F"
       style="fill:#207245;fill-opacity:1" /><rect
       fill="#8ABE4F"
       height="24.2"
       id="XMLID_343_"
       width="62.1"
       x="363.2"
       y="144.6"
       style="fill:#207245;fill-opacity:1" /><path
       d="M363.2,187.3c0,2.2,2,4,4.5,4h53.1c2.5,0,4.5-1.8,4.5-4v-8.9h-62.1V187.3z"
       fill="#8ABE4F"
       id="XMLID_342_"
       style="fill:#207245;fill-opacity:1" /><path
       d="M386.7,464.2c0,15.8-12.8,28.6-28.6,28.6H109.5c-15.8,0-28.6-12.8-28.6-28.6v-8.8H67.7V469   c0,20.5,16.6,37,37,37h258.1c20.5,0,37-16.6,37-37V200.4h-13.2V464.2z"
       fill="#8ABE4F"
       id="XMLID_341_"
       style="fill:#207245;fill-opacity:1" /><path
       d="M80.9,110.3c0-15.8,12.8-28.6,28.6-28.6h213.2c-1.4-4.4-0.3-9.3,3-12.7l0.4-0.4H104.8   c-20.5,0-37,16.6-37,37V333h13.2V110.3z"
       fill="#8ABE4F"
       id="XMLID_340_"
       style="fill:#207245;fill-opacity:1" /><path
       style="fill:#207245;fill-opacity:1"
       d="M 54.699219 342.19922 L 54.699219 446.30078 L 293.40039 446.30078 C 322.10039 446.30078 345.40039 423.00078 345.40039 394.30078 C 345.40039 365.60078 322.10078 342.19922 293.30078 342.19922 L 54.699219 342.19922 z M 199.70312 364.98242 C 202.25521 364.98242 204.85655 365.21398 207.50586 365.67578 C 210.15516 366.13759 212.86393 366.8303 215.63477 367.75391 L 215.63477 374.93555 C 212.83963 373.59874 210.20378 372.60352 207.72461 371.94727 C 205.24544 371.29102 202.85004 370.96289 200.54102 370.96289 C 196.5306 370.96289 193.43164 371.73937 191.24414 373.29492 C 189.08095 374.85048 188 377.06359 188 379.93164 C 188 382.33789 188.71636 384.16081 190.15039 385.40039 C 191.60872 386.61567 194.3559 387.60004 198.39062 388.35352 L 202.83789 389.26367 C 208.33095 390.30881 212.37782 392.15734 214.97852 394.80664 C 217.60352 397.43164 218.91602 400.9553 218.91602 405.37891 C 218.91602 410.65321 217.14236 414.65082 213.59375 417.37305 C 210.06944 420.09527 204.89236 421.45703 198.0625 421.45703 C 195.48611 421.45703 192.73893 421.16536 189.82227 420.58203 C 186.9299 419.9987 183.92947 419.1365 180.81836 417.99414 L 180.81836 410.41016 C 183.80794 412.08724 186.73546 413.35048 189.60352 414.20117 C 192.47157 415.05187 195.29167 415.47852 198.0625 415.47852 C 202.26736 415.47852 205.51215 414.65082 207.79688 412.99805 C 210.0816 411.34527 211.22461 408.98828 211.22461 405.92578 C 211.22461 403.25217 210.39692 401.16124 208.74414 399.6543 C 207.11567 398.14735 204.43056 397.01714 200.6875 396.26367 L 196.20312 395.38867 C 190.71007 394.29492 186.73611 392.58138 184.28125 390.24805 C 181.82639 387.91471 180.59961 384.66992 180.59961 380.51367 C 180.59961 375.70117 182.28754 371.90951 185.66602 369.13867 C 189.06879 366.36784 193.74826 364.98242 199.70312 364.98242 z M 87.630859 365.9668 L 95.541016 365.9668 L 109.06836 386.20117 L 122.66602 365.9668 L 130.57812 365.9668 L 113.07812 392.10742 L 131.74414 420.40039 L 123.83398 420.40039 L 108.52148 397.24805 L 93.099609 420.40039 L 85.150391 420.40039 L 104.58398 391.3418 L 87.630859 365.9668 z M 141.44336 365.9668 L 148.80664 365.9668 L 148.80664 414.20117 L 175.3125 414.20117 L 175.3125 420.40039 L 141.44336 420.40039 L 141.44336 365.9668 z "
       id="XMLID_1164_" /></g></svg>