<?xml version="1.0" encoding="UTF-8" standalone="no"?>
<svg
   xmlns:dc="http://purl.org/dc/elements/1.1/"
   xmlns:cc="http://creativecommons.org/ns#"
   xmlns:rdf="http://www.w3.org/1999/02/22-rdf-syntax-ns#"
   xmlns:svg="http://www.w3.org/2000/svg"
   xmlns="http://www.w3.org/2000/svg"
   xmlns:sodipodi="http://sodipodi.sourceforge.net/DTD/sodipodi-0.dtd"
   xmlns:inkscape="http://www.inkscape.org/namespaces/inkscape"
   id="Layer_1"
   version="1.2"
   viewBox="0 0 512 512"
   xml:space="preserve"
   sodipodi:docname="iconfinder-icon-excel-xlsx.svg"
   inkscape:version="0.92.3 (2405546, 2018-03-11)"><metadata
     id="metadata58"><rdf:RDF><cc:Work
         rdf:about=""><dc:format>image/svg+xml</dc:format><dc:type
           rdf:resource="http://purl.org/dc/dcmitype/StillImage" /><dc:title></dc:title></cc:Work></rdf:RDF></metadata><defs
     id="defs56" /><sodipodi:namedview
     pagecolor="#ffffff"
     bordercolor="#666666"
     borderopacity="1"
     objecttolerance="10"
     gridtolerance="10"
     guidetolerance="10"
     inkscape:pageopacity="0"
     inkscape:pageshadow="2"
     inkscape:window-width="1065"
     inkscape:window-height="862"
     id="namedview54"
     showgrid="false"
     inkscape:zoom="1.3037281"
     inkscape:cx="211.85406"
     inkscape:cy="153.09946"
     inkscape:window-x="1951"
     inkscape:window-y="52"
     inkscape:window-maximized="0"
     inkscape:current-layer="XMLID_1407_" /><g
     id="XMLID_18_"><rect
       fill="#00AEBB"
       height="19.1"
       id="XMLID_34_"
       width="227.1"
       x="1328.9"
       y="5241.9" /><rect
       fill="#00AEBB"
       height="19.1"
       id="XMLID_33_"
       width="227.1"
       x="1328.9"
       y="5272.9" /><rect
       fill="#00AEBB"
       height="19.1"
       id="XMLID_32_"
       width="227.1"
       x="1328.9"
       y="5303.9" /><rect
       fill="#00AEBB"
       height="19.1"
       id="XMLID_31_"
       width="227.1"
       x="1328.9"
       y="5335" /><rect
       fill="#00AEBB"
       height="19.1"
       id="XMLID_30_"
       width="176.5"
       x="1328.9"
       y="5366" /><path
       d="M1664.7,5158.4l-58.5-67.8c-1.8-1.8-4.9-1.8-6.7,0l-58.5,67.8c-2.6,2.6-0.6,6.7,3.3,6.7   h27.4v53.2h62.1v-53.2h27.4C1665.3,5165.1,1667.3,5161,1664.7,5158.4z"
       fill="#00AEBB"
       id="XMLID_29_" /><rect
       fill="#00AEBB"
       height="24.2"
       id="XMLID_28_"
       width="62.1"
       x="1571.8"
       y="5227.9" /><path
       d="M1571.8,5270.5c0,2.2,2,4,4.5,4h53.1c2.5,0,4.5-1.8,4.5-4v-8.9h-62.1V5270.5z"
       fill="#00AEBB"
       id="XMLID_27_" /><path
       d="M1595.3,5547.5c0,15.8-12.8,28.6-28.6,28.6h-248.7c-15.8,0-28.6-12.8-28.6-28.6v-8.8h-13.2   v13.5c0,20.5,16.6,37,37,37h258.1c20.5,0,37-16.6,37-37v-268.5h-13.2V5547.5z"
       fill="#00AEBB"
       id="XMLID_26_" /><path
       d="M1289.5,5193.5c0-15.8,12.8-28.6,28.6-28.6h213.2c-1.4-4.4-0.3-9.3,3-12.7l0.4-0.4h-221.3   c-20.5,0-37,16.6-37,37v227.5h13.2V5193.5z"
       fill="#00AEBB"
       id="XMLID_25_" /><path
       d="M1554,5477.5L1554,5477.5c0-28.7-23.3-52.1-52.1-52.1h-238.7v104.1H1502   C1530.7,5529.6,1554,5506.3,1554,5477.5z M1378.6,5510h-11.2c-1.2-1-1.9-2.5-2.3-4.6c-0.3-2.1-0.5-4.2-0.5-6.3v-5.2   c0-3.3-1-6-2.9-7.9c-1.9-2-4.5-2.9-7.8-2.9h-12.8v27h-10.8v-65h22.4c7.2,0,12.8,1.6,16.8,4.9c4,3.3,5.9,7.9,5.9,14   c0,3.4-0.9,6.3-2.6,8.7c-1.7,2.4-4.3,4.4-7.6,5.8c3.7,1.2,6.3,3.1,7.9,5.7c1.6,2.6,2.4,5.9,2.4,9.7v5.4c0,1.9,0.2,3.8,0.7,5.6   c0.5,1.8,1.3,3.2,2.4,4.2V5510z M1434.4,5453.7h-20.1v56.3h-10.8v-56.3h-19.8v-8.7h50.7V5453.7z M1487,5453.7h-30.8v19.9h26.2v8.7   h-26.2v27.7h-10.8v-65h41.6V5453.7z"
       fill="#00AEBB"
       id="XMLID_20_" /><path
       d="M1352.7,5453.7h-11.5v20.6h10.9c4.3,0,7.5-0.8,9.5-2.5c2-1.7,3-4.2,3-7.6   c0-3.3-1-5.8-2.9-7.7C1359.7,5454.7,1356.7,5453.7,1352.7,5453.7z"
       fill="#00AEBB"
       id="XMLID_19_" /></g><g
     id="XMLID_1_"><rect
       fill="#00AEBB"
       height="19.1"
       id="XMLID_17_"
       width="227.1"
       x="1328.9"
       y="5241.9" /><rect
       fill="#00AEBB"
       height="19.1"
       id="XMLID_16_"
       width="227.1"
       x="1328.9"
       y="5272.9" /><rect
       fill="#00AEBB"
       height="19.1"
       id="XMLID_15_"
       width="227.1"
       x="1328.9"
       y="5303.9" /><rect
       fill="#00AEBB"
       height="19.1"
       id="XMLID_14_"
       width="227.1"
       x="1328.9"
       y="5335" /><rect
       fill="#00AEBB"
       height="19.1"
       id="XMLID_13_"
       width="176.5"
       x="1328.9"
       y="5366" /><path
       d="M1664.7,5158.4l-58.5-67.8c-1.8-1.8-4.9-1.8-6.7,0l-58.5,67.8c-2.6,2.6-0.6,6.7,3.3,6.7   h27.4v53.2h62.1v-53.2h27.4C1665.3,5165.1,1667.3,5161,1664.7,5158.4z"
       fill="#00AEBB"
       id="XMLID_12_" /><rect
       fill="#00AEBB"
       height="24.2"
       id="XMLID_11_"
       width="62.1"
       x="1571.8"
       y="5227.9" /><path
       d="M1571.8,5270.5c0,2.2,2,4,4.5,4h53.1c2.5,0,4.5-1.8,4.5-4v-8.9h-62.1V5270.5z"
       fill="#00AEBB"
       id="XMLID_10_" /><path
       d="M1595.3,5547.5c0,15.8-12.8,28.6-28.6,28.6h-248.7c-15.8,0-28.6-12.8-28.6-28.6v-8.8h-13.2   v13.5c0,20.5,16.6,37,37,37h258.1c20.5,0,37-16.6,37-37v-268.5h-13.2V5547.5z"
       fill="#00AEBB"
       id="XMLID_9_" /><path
       d="M1289.5,5193.5c0-15.8,12.8-28.6,28.6-28.6h213.2c-1.4-4.4-0.3-9.3,3-12.7l0.4-0.4h-221.3   c-20.5,0-37,16.6-37,37v227.5h13.2V5193.5z"
       fill="#00AEBB"
       id="XMLID_8_" /><path
       d="M1554,5477.5L1554,5477.5c0-28.7-23.3-52.1-52.1-52.1h-238.7v104.1H1502   C1530.7,5529.6,1554,5506.3,1554,5477.5z M1378.6,5510h-11.2c-1.2-1-1.9-2.5-2.3-4.6c-0.3-2.1-0.5-4.2-0.5-6.3v-5.2   c0-3.3-1-6-2.9-7.9c-1.9-2-4.5-2.9-7.8-2.9h-12.8v27h-10.8v-65h22.4c7.2,0,12.8,1.6,16.8,4.9c4,3.3,5.9,7.9,5.9,14   c0,3.4-0.9,6.3-2.6,8.7c-1.7,2.4-4.3,4.4-7.6,5.8c3.7,1.2,6.3,3.1,7.9,5.7c1.6,2.6,2.4,5.9,2.4,9.7v5.4c0,1.9,0.2,3.8,0.7,5.6   c0.5,1.8,1.3,3.2,2.4,4.2V5510z M1434.4,5453.7h-20.1v56.3h-10.8v-56.3h-19.8v-8.7h50.7V5453.7z M1487,5453.7h-30.8v19.9h26.2v8.7   h-26.2v27.7h-10.8v-65h41.6V5453.7z"
       fill="#00AEBB"
       id="XMLID_3_" /><path
       d="M1352.7,5453.7h-11.5v20.6h10.9c4.3,0,7.5-0.8,9.5-2.5c2-1.7,3-4.2,3-7.6   c0-3.3-1-5.8-2.9-7.7C1359.7,5454.7,1356.7,5453.7,1352.7,5453.7z"
       fill="#00AEBB"
       id="XMLID_2_" /></g><g
     id="XMLID_1424_"><rect
       fill="#00AEBB"
       height="19.1"
       id="XMLID_581_"
       width="227.1"
       x="1328.9"
       y="5241.9" /><rect
       fill="#00AEBB"
       height="19.1"
       id="XMLID_580_"
       width="227.1"
       x="1328.9"
       y="5272.9" /><rect
       fill="#00AEBB"
       height="19.1"
       id="XMLID_579_"
       width="227.1"
       x="1328.9"
       y="5303.9" /><rect
       fill="#00AEBB"
       height="19.1"
       id="XMLID_578_"
       width="227.1"
       x="1328.9"
       y="5335" /><rect
       fill="#00AEBB"
       height="19.1"
       id="XMLID_577_"
       width="176.5"
       x="1328.9"
       y="5366" /><path
       d="M1664.7,5158.4l-58.5-67.8c-1.8-1.8-4.9-1.8-6.7,0l-58.5,67.8c-2.6,2.6-0.6,6.7,3.3,6.7   h27.4v53.2h62.1v-53.2h27.4C1665.3,5165.1,1667.3,5161,1664.7,5158.4z"
       fill="#00AEBB"
       id="XMLID_576_" /><rect
       fill="#00AEBB"
       height="24.2"
       id="XMLID_575_"
       width="62.1"
       x="1571.8"
       y="5227.9" /><path
       d="M1571.8,5270.5c0,2.2,2,4,4.5,4h53.1c2.5,0,4.5-1.8,4.5-4v-8.9h-62.1V5270.5z"
       fill="#00AEBB"
       id="XMLID_574_" /><path
       d="M1595.3,5547.5c0,15.8-12.8,28.6-28.6,28.6h-248.7c-15.8,0-28.6-12.8-28.6-28.6v-8.8h-13.2   v13.5c0,20.5,16.6,37,37,37h258.1c20.5,0,37-16.6,37-37v-268.5h-13.2V5547.5z"
       fill="#00AEBB"
       id="XMLID_573_" /><path
       d="M1289.5,5193.5c0-15.8,12.8-28.6,28.6-28.6h213.2c-1.4-4.4-0.3-9.3,3-12.7l0.4-0.4h-221.3   c-20.5,0-37,16.6-37,37v227.5h13.2V5193.5z"
       fill="#00AEBB"
       id="XMLID_572_" /><path
       d="M1554,5477.5L1554,5477.5c0-28.7-23.3-52.1-52.1-52.1h-238.7v104.1H1502   C1530.7,5529.6,1554,5506.3,1554,5477.5z M1378.6,5510h-11.2c-1.2-1-1.9-2.5-2.3-4.6c-0.3-2.1-0.5-4.2-0.5-6.3v-5.2   c0-3.3-1-6-2.9-7.9c-1.9-2-4.5-2.9-7.8-2.9h-12.8v27h-10.8v-65h22.4c7.2,0,12.8,1.6,16.8,4.9c4,3.3,5.9,7.9,5.9,14   c0,3.4-0.9,6.3-2.6,8.7c-1.7,2.4-4.3,4.4-7.6,5.8c3.7,1.2,6.3,3.1,7.9,5.7c1.6,2.6,2.4,5.9,2.4,9.7v5.4c0,1.9,0.2,3.8,0.7,5.6   c0.5,1.8,1.3,3.2,2.4,4.2V5510z M1434.4,5453.7h-20.1v56.3h-10.8v-56.3h-19.8v-8.7h50.7V5453.7z M1487,5453.7h-30.8v19.9h26.2v8.7   h-26.2v27.7h-10.8v-65h41.6V5453.7z"
       fill="#00AEBB"
       id="XMLID_1426_" /><path
       d="M1352.7,5453.7h-11.5v20.6h10.9c4.3,0,7.5-0.8,9.5-2.5c2-1.7,3-4.2,3-7.6   c0-3.3-1-5.8-2.9-7.7C1359.7,5454.7,1356.7,5453.7,1352.7,5453.7z"
       fill="#00AEBB"
       id="XMLID_567_" /></g><g
     id="XMLID_1407_"><rect
       fill="#8ABE4F"
       height="19.1"
       id="XMLID_566_"
       width="227.1"
       x="120.3"
       y="158.6"
       style="fill:#207245;fill-opacity:1" /><rect
       fill="#8ABE4F"
       height="19.1"
       id="XMLID_565_"
       width="227.1"
       x="120.3"
       y="189.6"
       style="fill:#207245;fill-opacity:1" /><rect
       fill="#8ABE4F"
       height="19.1"
       id="XMLID_564_"
       width="227.1"
       x="120.3"
       y="220.7"
       style="fill:#207245;fill-opacity:1" /><rect
       fill="#8ABE4F"
       height="19.1"
       id="XMLID_563_"
       width="227.1"
       x="120.3"
       y="251.7"
       style="fill:#207245;fill-opacity:1" /><rect
       fill="#8ABE4F"
       height="19.1"
       id="XMLID_562_"
       width="176.5"
       x="120.3"
       y="282.7"
       style="fill:#207245;fill-opacity:1" /><path
       d="M456.1,75.1L397.6,7.3c-1.8-1.8-4.9-1.8-6.7,0l-58.5,67.8c-2.6,2.6-0.6,6.7,3.3,6.7h27.4   V135h62.1V81.8h27.4C456.7,81.8,458.7,77.7,456.1,75.1z"
       fill="#8ABE4F"
       id="XMLID_561_"
       style="fill:#207245;fill-opacity:1" /><rect
       fill="#8ABE4F"
       height="24.2"
       id="XMLID_560_"
       width="62.1"
       x="363.2"
       y="144.6"
       style="fill:#207245;fill-opacity:1" /><path
       d="M363.2,187.3c0,2.2,2,4,4.5,4h53.1c2.5,0,4.5-1.8,4.5-4v-8.9h-62.1V187.3z"
       fill="#8ABE4F"
       id="XMLID_559_"
       style="fill:#207245;fill-opacity:1" /><path
       d="M386.7,464.2c0,15.8-12.8,28.6-28.6,28.6H109.5c-15.8,0-28.6-12.8-28.6-28.6v-8.8H67.7V469   c0,20.5,16.6,37,37,37h258.1c20.5,0,37-16.6,37-37V200.4h-13.2V464.2z"
       fill="#8ABE4F"
       id="XMLID_558_"
       style="fill:#207245;fill-opacity:1" /><path
       d="M80.9,110.3c0-15.8,12.8-28.6,28.6-28.6h213.2c-1.4-4.4-0.3-9.3,3-12.7l0.4-0.4H104.8   c-20.5,0-37,16.6-37,37V333h13.2V110.3z"
       fill="#8ABE4F"
       id="XMLID_557_"
       style="fill:#207245;fill-opacity:1" /><path
       style="fill:#207245;fill-opacity:1"
       d="M 54.699219 342.19922 L 54.699219 446.30078 L 293.40039 446.30078 C 322.10039 446.30078 345.40039 423.00078 345.40039 394.30078 C 345.40039 365.60078 322.10078 342.19922 293.30078 342.19922 L 54.699219 342.19922 z M 197.5625 364.48047 C 200.11458 364.48047 202.71593 364.71007 205.36523 365.17188 C 208.01454 365.63368 210.72331 366.32639 213.49414 367.25 L 213.49414 374.43359 C 210.699 373.09679 208.06315 372.09961 205.58398 371.44336 C 203.10482 370.78711 200.70942 370.45898 198.40039 370.45898 C 194.38997 370.45898 191.29102 371.23741 189.10352 372.79297 C 186.94032 374.34852 185.85938 376.55968 185.85938 379.42773 C 185.85938 381.83398 186.57574 383.6569 188.00977 384.89648 C 189.4681 386.11176 192.21528 387.09614 196.25 387.84961 L 200.69727 388.76172 C 206.19032 389.80686 210.2372 391.65343 212.83789 394.30273 C 215.46289 396.92773 216.77539 400.45139 216.77539 404.875 C 216.77539 410.14931 215.00174 414.14887 211.45312 416.87109 C 207.92882 419.59332 202.75174 420.95312 195.92188 420.95312 C 193.34549 420.95312 190.59831 420.66146 187.68164 420.07812 C 184.78928 419.49479 181.78885 418.6326 178.67773 417.49023 L 178.67773 409.90625 C 181.66732 411.58333 184.59484 412.84852 187.46289 413.69922 C 190.33095 414.54991 193.15104 414.97461 195.92188 414.97461 C 200.12674 414.97461 203.37153 414.14887 205.65625 412.49609 C 207.94097 410.84332 209.08398 408.48437 209.08398 405.42188 C 209.08398 402.74826 208.25629 400.65929 206.60352 399.15234 C 204.97504 397.6454 202.28993 396.51519 198.54688 395.76172 L 194.0625 394.88672 C 188.56944 393.79297 184.59549 392.07943 182.14062 389.74609 C 179.68576 387.41276 178.45898 384.16797 178.45898 380.01172 C 178.45898 375.19922 180.14692 371.40755 183.52539 368.63672 C 186.92817 365.86589 191.60764 364.48047 197.5625 364.48047 z M 85.490234 365.46484 L 93.400391 365.46484 L 106.92773 385.69922 L 120.52539 365.46484 L 128.4375 365.46484 L 110.9375 391.60547 L 129.60352 419.89648 L 121.69336 419.89648 L 106.38086 396.74609 L 90.958984 419.89648 L 83.009766 419.89648 L 102.44336 390.83984 L 85.490234 365.46484 z M 139.30273 365.46484 L 146.66602 365.46484 L 146.66602 413.69922 L 173.17188 413.69922 L 173.17188 419.89648 L 139.30273 419.89648 L 139.30273 365.46484 z M 225.63477 365.46484 L 233.54688 365.46484 L 247.07227 385.69922 L 260.67188 365.46484 L 268.58398 365.46484 L 251.08398 391.60547 L 269.75 419.89648 L 261.83789 419.89648 L 246.52539 396.74609 L 231.10352 419.89648 L 223.15625 419.89648 L 242.58789 390.83984 L 225.63477 365.46484 z M 160.40039 367.5 L 169.30078 367.5 L 169.30078 367.59961 L 160.40039 367.59961 L 160.40039 367.5 z M 107.09961 420.35938 L 107.09961 420.90039 L 117.35742 420.90039 L 117.30078 421 L 106.69922 421 L 107.09961 420.35938 z M 140.44336 420.90039 L 140.5 420.90039 L 140.5 421 L 140.44336 420.90039 z M 160.40039 420.90039 L 177.95117 420.90039 L 177.95117 421 L 160.40039 421 L 160.40039 420.90039 z "
       id="XMLID_1408_" /></g></svg>