<?xml version="1.0" encoding="UTF-8" standalone="no"?>
<svg
   xmlns:dc="http://purl.org/dc/elements/1.1/"
   xmlns:cc="http://creativecommons.org/ns#"
   xmlns:rdf="http://www.w3.org/1999/02/22-rdf-syntax-ns#"
   xmlns:svg="http://www.w3.org/2000/svg"
   xmlns="http://www.w3.org/2000/svg"
   xmlns:sodipodi="http://sodipodi.sourceforge.net/DTD/sodipodi-0.dtd"
   xmlns:inkscape="http://www.inkscape.org/namespaces/inkscape"
   width="512"
   height="512"
   version="1.1"
   id="svg24"
   sodipodi:docname="iconfinder-icon-arch-zip.svg"
   inkscape:version="0.92.3 (2405546, 2018-03-11)">
  <metadata
     id="metadata30">
    <rdf:RDF>
      <cc:Work
         rdf:about="">
        <dc:format>image/svg+xml</dc:format>
        <dc:type
           rdf:resource="http://purl.org/dc/dcmitype/StillImage" />
        <dc:title></dc:title>
      </cc:Work>
    </rdf:RDF>
  </metadata>
  <defs
     id="defs28" />
  <sodipodi:namedview
     pagecolor="#ffffff"
     bordercolor="#666666"
     borderopacity="1"
     objecttolerance="10"
     gridtolerance="10"
     guidetolerance="10"
     inkscape:pageopacity="0"
     inkscape:pageshadow="2"
     inkscape:window-width="1195"
     inkscape:window-height="944"
     id="namedview26"
     showgrid="false"
     inkscape:zoom="0.56568545"
     inkscape:cx="92.068354"
     inkscape:cy="-39.672856"
     inkscape:window-x="1402"
     inkscape:window-y="68"
     inkscape:window-maximized="0"
     inkscape:current-layer="g22"
     inkscape:snap-text-baseline="true" />
  <g
     id="g5">
    <title
       id="title2">background</title>
    <rect
       fill="none"
       id="canvas_background"
       height="402"
       width="582"
       y="-1"
       x="-1" />
  </g>
  <g
     id="g22">
    <title
       id="title7">Layer 1</title>
    <path
       id="XMLID_255_"
       d="m456.1,75.1l-58.5,-67.8c-1.8,-1.8 -4.9,-1.8 -6.7,0l-58.5,67.8c-2.6,2.6 -0.6,6.7 3.3,6.7l27.4,0l0,53.2l62.1,0l0,-53.2l27.4,0c4.1,0 6.1,-4.1 3.5,-6.7z"
       style="fill:#929292;fill-opacity:1"
       fill="#1d409d" />
    <rect
       y="144.6"
       x="363.2"
       width="62.1"
       id="XMLID_254_"
       height="24.2"
       style="fill:#929292;fill-opacity:1"
       fill="#1d409d" />
    <path
       id="XMLID_253_"
       d="m363.2,187.3c0,2.2 2,4 4.5,4l53.1,0c2.5,0 4.5,-1.8 4.5,-4l0,-8.9l-62.1,0l0,8.9z"
       fill="#1d409d"
       style="fill:#929292;fill-opacity:1" />
    <path
       id="XMLID_252_"
       d="m387.497007,464.2c0,15.8 -12.8,28.6 -28.6,28.6l-248.6,0c-15.8,0 -28.6,-12.8 -28.6,-28.6l0,-8.8l-13.2,0l0,13.6c0,20.5 16.6,37 37,37l258.1,0c20.5,0 37,-16.6 37,-37l0,-268.6l-13.2,0l0,263.8l0.1,0z"
       style="fill:#929292;fill-opacity:1"
       fill="#1d409d" />
    <path
       id="XMLID_251_"
       d="m80.9,110.3c0,-15.8 12.8,-28.6 28.6,-28.6l213.2,0c-1.4,-4.4 -0.3,-9.3 3,-12.7l0.4,-0.4l-221.3,0c-20.5,0 -37,16.6 -37,37l0,227.4l13.2,0l0,-222.7l-0.1,0z"
       style="fill:#929292;fill-opacity:1"
       fill="#1d409d" />
    <path
       style="fill:#929292;fill-opacity:1"
       d="M 59.123047 344.42383 L 59.123047 448.52539 L 297.82422 448.52539 C 326.52422 448.52539 349.82422 425.22539 349.82422 396.52539 C 349.82422 367.82539 326.52461 344.42383 297.72461 344.42383 L 59.123047 344.42383 z M 97.443359 367.69336 L 140.20898 367.69336 L 140.20898 373.30664 L 105.79102 415.92773 L 141.04688 415.92773 L 141.04688 422.125 L 96.603516 422.125 L 96.603516 416.50977 L 131.02148 373.89062 L 97.443359 373.89062 L 97.443359 367.69336 z M 151.76562 367.69336 L 159.13086 367.69336 L 159.13086 422.125 L 151.76562 422.125 L 151.76562 367.69336 z M 173.78711 367.69336 L 190.41211 367.69336 C 196.5128 367.69336 201.1174 369.07878 204.22852 371.84961 C 207.36393 374.59614 208.93164 378.63021 208.93164 383.95312 C 208.93164 389.32465 207.36393 393.38433 204.22852 396.13086 C 201.1174 398.87739 196.5128 400.25 190.41211 400.25 L 181.15039 400.25 L 181.15039 422.125 L 173.78711 422.125 L 173.78711 367.69336 z M 181.15039 373.74414 L 181.15039 394.19727 L 190.41211 394.19727 C 193.83919 394.19727 196.48785 393.31141 198.35938 391.53711 C 200.2309 389.7628 201.16602 387.23437 201.16602 383.95312 C 201.16602 380.69618 200.2309 378.18056 198.35938 376.40625 C 196.48785 374.63194 193.83919 373.74414 190.41211 373.74414 L 181.15039 373.74414 z "
       id="XMLID_1062_" />
    <flowRoot
       xml:space="preserve"
       id="flowRoot887"
       style="font-style:normal;font-weight:normal;font-size:40px;line-height:1.25;font-family:sans-serif;letter-spacing:0px;word-spacing:0px;fill:#ff0000;fill-opacity:0;stroke:none;"><flowRegion
         id="flowRegion889"
         style="fill:#ff0000;fill-opacity:0;"><rect
           id="rect891"
           width="108.125"
           height="51.25"
           x="80.625"
           y="364.5"
           style="fill:#ff0000;fill-opacity:0;" /></flowRegion><flowPara
         id="flowPara893"
         style="fill:#ff0000;-inkscape-font-specification:'sans-serif, Normal';font-family:sans-serif;font-weight:normal;font-style:normal;font-stretch:normal;font-variant:normal;font-size:53.33333333px;text-anchor:start;text-align:start;writing-mode:lr;font-variant-ligatures:normal;font-variant-caps:normal;font-variant-numeric:normal;font-feature-settings:normal;fill-opacity:0;">ODS</flowPara></flowRoot>    <path
       style="fill:#929292;fill-rule:evenodd;stroke:none;stroke-width:12.87664413"
       d="m 228.61301,255.49766 v -13.0126 h -13.37437 v -12.39744 h 13.37437 v -12.39745 h -13.37437 v -12.39744 h 13.37437 v -12.39744 h -13.37437 v -12.39744 h 13.37437 v -12.39746 h -13.37437 v -12.39744 h 13.37437 V 143.3055 h -13.37437 v -12.39744 h 13.37437 v -12.39744 h -13.37437 v -12.39744 h 13.37437 V 93.715729 H 215.23864 V 81.318284 h 26.74873 v 0 12.397445 h 13.37437 v 12.397451 h -13.37437 v 12.39744 h 13.37437 v 12.39744 h -13.37437 v 12.39744 h 13.37437 v 12.39745 h -13.37437 v 12.39744 h 13.37437 v 12.39746 h -13.37437 v 12.39744 h 13.37437 v 12.39744 h -13.37437 v 12.39744 h 13.37437 v 12.39745 h -13.37437 v 12.39744 13.0105 c 15.34227,2.8586 26.74874,15.37407 26.74874,30.38055 0,17.23655 -14.9698,30.99362 -33.43593,30.99362 -18.59491,0 -33.43591,-13.87634 -33.43591,-30.99362 0,-15.09909 11.48698,-27.5279 26.74874,-30.37845 z m 6.68717,11.78228 c -11.07972,0 -20.06154,8.25411 -20.06154,18.59617 0,10.2703 8.90451,18.59617 20.06154,18.59617 11.0796,0 20.06156,-8.25421 20.06156,-18.59617 0,-10.27041 -8.90466,-18.59617 -20.06156,-18.59617 z"
       id="document-zip"
       inkscape:connector-curvature="0"
       sodipodi:nodetypes="ccccccccccccccccccccccccccccccccccccccccccccccccccccccccssscsssss" />
  </g>
</svg>
